<svg width="335" height="279" viewBox="0 0 335 279" fill="none" xmlns="http://www.w3.org/2000/svg">
<path d="M231.076 78.186C231.377 78.2682 231.678 78.3505 231.988 78.4352C239.768 80.5775 246.943 83.7561 251.382 90.8521C255.529 98.624 255.02 107.946 252.679 116.218C251.598 119.742 250.498 123.21 248.424 126.284C246.251 129.618 247.193 133.325 247.958 137.018C248.141 137.825 248.141 137.825 248.328 138.649C248.577 139.925 248.674 141.023 248.615 142.316C248.89 142.301 249.165 142.285 249.448 142.27C249.806 142.258 250.164 142.246 250.534 142.234C250.89 142.218 251.246 142.203 251.613 142.187C251.926 142.23 252.239 142.272 252.562 142.316C253.485 143.703 253.55 144.053 253.521 145.638C253.518 145.983 253.515 146.328 253.512 146.683C253.439 147.587 253.439 147.587 253 148.466C253.457 148.482 253.914 148.498 254.384 148.515C258.854 148.708 263.1 149.277 267.47 150.223C268.018 150.337 268.565 150.452 269.13 150.571C272.978 151.412 272.978 151.412 274.486 152.419C274.875 152.546 275.264 152.672 275.664 152.803C277.128 153.301 278.417 153.932 279.778 154.658C280.638 155.061 281.453 155.294 282.378 155.493C282.378 155.783 282.378 156.073 282.378 156.372C283.247 156.517 284.115 156.662 285.009 156.811C285.009 157.101 285.009 157.391 285.009 157.69C285.362 157.807 285.715 157.925 286.078 158.047C286.449 158.219 286.82 158.391 287.202 158.568C287.346 159.003 287.491 159.438 287.64 159.886C287.957 159.922 288.273 159.958 288.599 159.996C291.004 160.638 292.504 162.562 294.217 164.278C294.624 164.596 295.031 164.913 295.451 165.239C295.767 165.502 296.084 165.765 296.41 166.035C296.41 166.325 296.41 166.615 296.41 166.914C296.844 167.059 297.278 167.204 297.725 167.353C298.027 168.259 298.027 168.259 298.164 169.11C298.453 169.11 298.743 169.11 299.041 169.11C299.041 169.545 299.041 169.98 299.041 170.428C299.556 170.591 299.556 170.591 300.082 170.757C301.441 171.406 301.519 171.731 302.11 173.063C302.342 173.514 302.342 173.514 302.579 173.973C302.732 174.271 302.885 174.568 303.042 174.875C303.274 175.325 303.274 175.325 303.511 175.785C303.864 176.577 303.864 176.577 303.864 177.456C304.153 177.456 304.443 177.456 304.741 177.456C305.109 178.169 305.473 178.883 305.837 179.597C306.142 180.193 306.142 180.193 306.454 180.802C306.933 181.848 306.933 181.848 306.933 182.727C307.223 182.727 307.512 182.727 307.81 182.727C308.473 183.942 309.129 185.159 309.784 186.378C309.972 186.723 310.16 187.068 310.354 187.424C310.621 187.923 310.621 187.923 310.893 188.432C311.059 188.738 311.224 189.044 311.394 189.359C311.757 190.194 311.757 190.194 311.757 191.512C312.046 191.512 312.335 191.512 312.634 191.512C313.211 193.102 313.511 194.189 313.511 195.904C313.8 195.904 314.089 195.904 314.388 195.904C314.559 196.321 314.731 196.738 314.908 197.167C315.478 198.512 316.124 199.798 316.799 201.093C317.741 202.948 318.382 204.777 318.915 206.786C319.171 207.767 319.171 207.767 319.685 208.577C320.088 209.521 320.088 209.521 320.064 210.919C320.094 213.001 320.653 214.632 321.348 216.576C321.467 216.917 321.585 217.259 321.706 217.61C321.937 218.276 322.169 218.941 322.403 219.606C324.507 225.586 325.986 231.742 327.432 237.907C327.5 238.194 327.568 238.48 327.638 238.775C328.774 243.591 329.387 248.055 329.433 253.006C329.446 253.464 329.458 253.921 329.472 254.393C329.499 257.772 328.992 260.157 326.723 262.714C318.03 269.322 306.02 270.581 295.533 271.894C315.067 272.111 315.067 272.111 334.996 272.333C334.996 273.638 334.996 274.942 334.996 276.286C334.047 276.288 334.047 276.288 333.079 276.29C318.047 276.315 303.016 276.347 287.985 276.387C286.134 276.392 284.283 276.397 282.431 276.402C282.063 276.403 281.694 276.404 281.315 276.405C275.352 276.42 269.39 276.431 263.427 276.44C257.306 276.45 251.185 276.464 245.065 276.484C241.29 276.495 237.515 276.503 233.739 276.506C231.149 276.508 228.558 276.515 225.967 276.526C224.474 276.532 222.98 276.536 221.487 276.535C219.864 276.534 218.242 276.541 216.619 276.551C216.152 276.548 215.685 276.546 215.203 276.544C212.479 276.57 210.122 276.945 207.519 277.761C206.521 278.043 206.521 278.043 205.206 278.043C205.206 278.333 205.206 278.623 205.206 278.922C199.538 279.166 194.484 278.534 188.982 277.165C188.982 276.73 188.982 276.295 188.982 275.847C188.665 275.811 188.349 275.775 188.023 275.737C186.443 275.315 185.744 274.829 184.597 273.651C182.843 270.445 182.843 270.445 182.843 268.819C182.395 268.67 182.395 268.67 181.939 268.517C180.6 267.918 179.563 267.189 178.391 266.319C177.152 265.44 175.842 264.722 174.512 263.988C174.512 263.698 174.512 263.408 174.512 263.109C174.258 262.989 174.004 262.869 173.743 262.745C170.997 261.31 168.955 259.374 167.058 256.96C166.732 256.633 166.407 256.307 166.071 255.971C158.083 247.969 152.66 238.305 148.203 227.969C148.022 227.55 147.841 227.131 147.655 226.7C142.858 214.876 139.709 201.965 138.118 189.316C138.073 188.981 138.029 188.646 137.983 188.301C137.278 182.914 137.138 177.613 137.241 172.185C137.863 171.973 137.863 171.973 138.497 171.757C148.88 168.217 148.88 168.217 159.204 164.509C161.558 163.641 163.922 162.827 166.308 162.05C167.661 161.586 168.988 161.069 170.319 160.545C172.623 159.642 174.942 158.908 177.314 158.21C178.544 157.806 179.721 157.37 180.918 156.882C181.268 156.739 181.619 156.597 181.98 156.45C182.669 156.166 183.357 155.876 184.042 155.58C187.396 154.199 189.791 155.106 193.093 156.235C193.438 156.351 193.782 156.467 194.138 156.587C196.723 157.467 199.277 158.419 201.827 159.395C204.072 160.248 206.34 160.982 208.643 161.662C211.765 162.609 214.809 163.701 217.839 164.91C220.554 165.982 223.276 166.971 226.054 167.868C227.13 168.232 227.13 168.232 228.637 168.891C230.564 169.703 232.533 170.273 234.534 170.874C236.073 171.361 237.507 171.943 238.969 172.624C239.074 177.16 238.798 181.492 238.174 185.994C238.092 186.599 238.011 187.204 237.93 187.809C237.422 191.542 236.879 195.26 236.092 198.945C235.861 200.038 235.643 201.132 235.423 202.227C234.301 207.714 232.915 213.017 231.076 218.306C230.848 218.972 230.848 218.972 230.616 219.651C227.1 229.837 222.777 239.482 216.469 248.257C216.038 248.864 216.038 248.864 215.597 249.484C215.351 249.777 215.106 250.069 214.852 250.371C214.563 250.371 214.273 250.371 213.975 250.371C213.858 250.697 213.74 251.023 213.619 251.359C213.124 252.508 212.568 253.359 211.783 254.324C212.09 254.433 212.398 254.542 212.715 254.654C213.975 255.203 213.975 255.203 215.318 256.109C216.413 256.832 217.091 257.203 218.36 257.399C218.478 257.055 218.595 256.71 218.716 256.356C219.237 255.203 219.237 255.203 220.553 254.324C221.081 253.569 221.081 253.569 221.512 252.732C221.774 252.243 222.036 251.753 222.306 251.249C222.596 251.249 222.885 251.249 223.183 251.249C223.473 250.38 223.762 249.51 224.06 248.614C224.35 248.614 224.639 248.614 224.937 248.614C225.064 248.197 225.191 247.78 225.321 247.351C225.814 245.978 225.814 245.978 226.691 245.1C227.081 244.237 227.081 244.237 227.404 243.288C227.518 242.97 227.632 242.652 227.75 242.324C227.835 242.08 227.919 241.837 228.007 241.586C228.296 241.586 228.586 241.586 228.884 241.586C228.998 241.212 229.112 240.839 229.23 240.453C229.785 238.881 230.475 237.466 231.241 235.986C233.186 232.153 234.657 228.269 235.993 224.188C236.453 222.782 236.925 221.387 237.461 220.008C239.407 214.873 240.535 209.622 241.6 204.25C241.889 204.25 242.178 204.25 242.477 204.25C242.509 203.55 242.509 203.55 242.542 202.836C242.575 202.209 242.608 201.582 242.641 200.956C242.655 200.65 242.668 200.344 242.682 200.029C242.784 198.185 243.08 196.547 243.563 194.757C244.094 192.323 244.242 189.815 244.477 187.339C244.587 186.218 244.697 185.097 244.808 183.976C244.859 183.448 244.91 182.92 244.963 182.377C245.074 181.295 245.201 180.221 245.351 179.144C245.619 176.828 245.704 174.514 245.793 172.185C245.812 171.719 245.83 171.253 245.85 170.773C245.896 169.633 245.941 168.493 245.984 167.353C245.72 167.309 245.456 167.266 245.184 167.221C242.331 166.705 239.762 165.855 237.078 164.773C234.034 163.576 231.012 162.466 227.871 161.55C226.589 161.174 225.326 160.754 224.06 160.325C223.624 160.183 223.188 160.04 222.738 159.893C221.444 159.452 220.179 158.964 218.908 158.458C216.201 157.407 213.464 156.477 210.707 155.569C208.441 154.822 206.195 154.034 203.962 153.193C203.068 152.877 202.182 152.632 201.259 152.419C201.259 151.984 201.259 151.549 201.259 151.101C201.838 151.101 202.417 151.101 203.013 151.101C203.013 150.811 203.013 150.521 203.013 150.223C204.52 149.935 206.027 149.653 207.535 149.371C208.165 149.251 208.165 149.251 208.807 149.129C211.342 148.658 213.832 148.33 216.408 148.179C218.166 147.929 219.468 147.161 220.991 146.269C220.668 146.253 220.346 146.236 220.013 146.22C215.746 145.932 215.746 145.932 213.975 144.512C213.55 144.213 213.125 143.914 212.687 143.606C210.875 142.057 209.835 139.996 208.714 137.924C208.53 137.592 208.347 137.261 208.159 136.92C207.333 135.361 206.96 134.448 206.96 132.653C206.67 132.653 206.381 132.653 206.083 132.653C204.837 129.827 204.661 127.116 204.666 124.077C204.666 123.694 204.665 123.311 204.665 122.916C204.668 121.311 204.677 119.707 204.708 118.102C204.803 112.52 204.432 109.395 200.821 104.98C198.756 100.859 199.102 96.595 200.465 92.2968C200.765 91.3983 201.074 90.5037 201.39 89.6105C201.69 88.7516 201.967 87.8884 202.239 87.0207C203.38 83.5294 204.359 80.8119 207.576 78.8654C215.074 75.1102 223.305 75.9742 231.076 78.186Z" fill="#C5CFFD"/>
<path d="M193.093 156.235C193.438 156.351 193.782 156.467 194.138 156.587C196.723 157.467 199.277 158.419 201.827 159.395C204.072 160.248 206.34 160.982 208.643 161.662C211.765 162.609 214.809 163.701 217.839 164.91C220.554 165.982 223.276 166.971 226.054 167.868C227.13 168.232 227.13 168.232 228.637 168.891C230.564 169.703 232.533 170.273 234.534 170.874C236.073 171.361 237.507 171.943 238.969 172.624C239.074 177.16 238.798 181.492 238.174 185.994C238.092 186.599 238.011 187.204 237.93 187.809C237.422 191.542 236.879 195.26 236.092 198.945C235.861 200.038 235.643 201.132 235.423 202.227C234.301 207.714 232.915 213.017 231.076 218.306C230.924 218.75 230.772 219.194 230.616 219.651C227.1 229.837 222.777 239.482 216.469 248.257C216.181 248.662 215.894 249.067 215.597 249.484C215.351 249.777 215.106 250.069 214.852 250.371C214.563 250.371 214.273 250.371 213.975 250.371C213.849 250.715 213.722 251.059 213.592 251.414C213.098 252.567 213.098 252.567 212.221 253.446C211.643 253.446 211.064 253.446 210.467 253.446C210.467 253.156 210.467 252.866 210.467 252.567C210.232 252.449 209.997 252.332 209.755 252.21C208.714 251.689 208.714 251.689 207.617 250.975C203.393 249.312 198.194 250.624 193.805 251.249C193.805 252.119 193.805 252.989 193.805 253.885C194.07 253.901 194.334 253.918 194.607 253.935C198.087 254.221 198.087 254.221 199.505 255.642C199.361 256.077 199.216 256.512 199.067 256.96C193.828 257.604 188.55 257.44 183.282 257.399C182.268 261.183 182.172 264.517 182.843 268.38C180.94 268.207 179.866 267.452 178.391 266.335C177.159 265.437 175.846 264.724 174.512 263.988C174.512 263.698 174.512 263.408 174.512 263.109C174.131 262.929 174.131 262.929 173.743 262.745C170.997 261.31 168.955 259.374 167.058 256.96C166.732 256.633 166.407 256.307 166.071 255.971C158.083 247.969 152.66 238.305 148.203 227.969C148.022 227.55 147.841 227.131 147.655 226.7C142.858 214.876 139.709 201.965 138.118 189.316C138.073 188.981 138.029 188.646 137.983 188.301C137.278 182.914 137.138 177.613 137.241 172.185C137.655 172.044 138.07 171.902 138.497 171.757C148.88 168.217 148.88 168.217 159.204 164.509C161.558 163.641 163.922 162.827 166.308 162.05C167.661 161.587 168.988 161.069 170.319 160.545C172.623 159.642 174.942 158.908 177.314 158.21C178.544 157.806 179.721 157.37 180.918 156.882C181.268 156.739 181.619 156.597 181.98 156.45C182.669 156.166 183.357 155.876 184.042 155.58C187.396 154.199 189.791 155.107 193.093 156.235Z" fill="#27AE60"/>
<path d="M320.092 212.596C322.062 218.515 322.062 218.515 322.408 219.556C322.665 220.329 322.926 221.1 323.187 221.871C324.902 227.132 326.174 232.523 327.437 237.907C327.504 238.194 327.572 238.48 327.642 238.775C328.778 243.591 329.391 248.055 329.437 253.006C329.45 253.464 329.463 253.921 329.476 254.393C329.503 257.772 328.996 260.157 326.727 262.714C318.034 269.322 306.024 270.581 295.537 271.894C315.071 272.111 315.071 272.111 335 272.333C335 273.638 335 274.942 335 276.286C334.051 276.288 334.051 276.288 333.083 276.29C318.051 276.315 303.02 276.347 287.989 276.387C286.138 276.392 284.287 276.397 282.436 276.402C282.067 276.403 281.698 276.404 281.319 276.405C275.356 276.42 269.394 276.431 263.431 276.44C257.31 276.45 251.19 276.464 245.069 276.484C241.294 276.495 237.519 276.503 233.744 276.506C231.153 276.508 228.562 276.515 225.971 276.526C224.478 276.532 222.985 276.536 221.491 276.535C219.868 276.534 218.246 276.541 216.623 276.551C216.156 276.548 215.689 276.546 215.207 276.544C212.483 276.57 210.126 276.945 207.523 277.761C206.525 278.043 206.525 278.043 205.21 278.043C205.21 278.333 205.21 278.623 205.21 278.922C199.542 279.166 194.488 278.534 188.986 277.165C188.986 276.73 188.986 276.295 188.986 275.847C188.669 275.811 188.353 275.775 188.027 275.737C186.447 275.315 185.748 274.829 184.601 273.651C182.847 270.445 182.847 270.445 182.847 268.819C182.558 268.674 182.268 268.529 181.97 268.38C182.26 268.38 182.549 268.38 182.847 268.38C182.703 267.963 182.558 267.547 182.409 267.117C181.385 263.466 181.951 260.965 183.286 257.399C188.495 257.109 193.704 256.819 199.071 256.52C198.926 256.085 198.782 255.651 198.633 255.203C197.51 254.75 197.51 254.75 196.194 254.461C195.75 254.351 195.306 254.241 194.849 254.127C194.506 254.047 194.163 253.967 193.809 253.885C193.642 253.01 193.497 252.131 193.371 251.249C194.728 249.889 198.923 250.121 200.825 249.932C201.558 249.858 201.558 249.858 202.307 249.782C205.585 249.607 207.949 250.409 210.472 252.567C210.472 252.857 210.472 253.147 210.472 253.446C210.906 253.446 211.34 253.446 211.787 253.446C211.787 253.735 211.787 254.025 211.787 254.324C212.085 254.424 212.384 254.523 212.691 254.626C214.042 255.231 215.086 255.976 216.268 256.853C217.344 257.605 218.491 258.165 219.68 258.717C219.68 259.006 219.68 259.296 219.68 259.595C220.124 259.5 220.568 259.405 221.026 259.307C221.619 259.183 222.211 259.06 222.804 258.936C223.096 258.873 223.387 258.81 223.688 258.746C225.45 258.382 227.09 258.21 228.888 258.277C228.888 257.987 228.888 257.697 228.888 257.399C230.303 256.69 231.879 256.723 233.437 256.575C236.227 256.288 238.864 255.858 241.573 255.11C243.516 254.61 245.481 254.267 247.454 253.912C248.959 253.638 250.435 253.336 251.908 252.924C253.668 252.515 255.151 252.503 256.951 252.567C256.951 252.277 256.951 251.987 256.951 251.689C258.469 251.22 259.862 251.205 261.445 251.222C261.918 251.226 262.39 251.23 262.877 251.234C263.236 251.239 263.596 251.244 263.966 251.249C263.966 250.814 263.966 250.38 263.966 249.932C267.439 249.714 267.439 249.714 270.982 249.492C270.982 249.202 270.982 248.913 270.982 248.614C273.988 247.608 276.882 247.022 280.026 246.665C283.64 246.219 287.074 245.552 290.577 244.559C291.994 244.229 293.211 244.157 294.66 244.221C294.334 243.515 294.334 243.515 294.002 242.794C293.394 241.474 293.345 240.945 293.345 239.39C293.055 239.39 292.766 239.39 292.468 239.39C292.468 238.665 292.468 237.94 292.468 237.193C292.178 237.193 291.889 237.193 291.591 237.193C291.479 236.807 291.368 236.42 291.253 236.022C291.102 235.511 290.951 235.001 290.796 234.476C290.648 233.971 290.501 233.467 290.349 232.947C289.87 231.579 289.292 230.505 288.521 229.287C287.984 227.87 287.644 226.851 287.644 225.334C295.339 221.332 295.339 221.332 299.045 220.941C299.045 220.651 299.045 220.361 299.045 220.063C299.419 219.943 299.419 219.943 299.8 219.821C301.94 219.123 304.002 218.344 306.061 217.427C307.084 216.988 308.107 216.549 309.13 216.11C309.627 215.883 310.125 215.657 310.637 215.423C311.805 214.951 312.798 214.628 314.008 214.353C315.18 214.086 315.829 213.839 316.886 213.2C318.07 212.494 318.741 212.546 320.092 212.596Z" fill="#F3AF9F"/>
<path d="M188.105 155.054C188.15 162.825 188.17 170.594 188.161 178.365C188.157 181.973 188.161 185.581 188.185 189.189C188.205 192.336 188.21 195.482 188.197 198.628C188.19 200.293 188.192 201.957 188.211 203.622C188.23 205.192 188.227 206.761 188.209 208.331C188.205 209.176 188.222 210.021 188.24 210.866C188.18 214.005 187.682 215.543 185.44 217.804C184.733 218.425 184.018 219.037 183.282 219.624C180.853 217.858 178.55 215.972 176.267 214.024C170.001 207.818 170.001 207.818 162.224 205.012C161.275 205.084 161.275 205.084 160.261 205.76C159.281 207.438 159.153 208.947 159.604 210.839C160.639 211.987 160.639 211.987 161.445 212.479C162.567 213.269 163.459 214.257 164.427 215.231C165.38 216.091 166.354 216.925 167.332 217.757C167.602 217.988 167.872 218.219 168.15 218.457C170.131 220.145 172.137 221.801 174.157 223.443C175.854 224.838 177.525 226.263 179.192 227.693C180.236 228.584 181.262 229.402 182.405 230.165C182.405 230.455 182.405 230.745 182.405 231.044C184.276 230.836 185.083 229.711 186.351 228.409C186.785 228.264 187.219 228.119 187.666 227.969C187.666 237.681 187.666 247.393 187.666 257.399C186.219 257.399 184.772 257.399 183.282 257.399C182.18 261.122 182.181 264.569 182.843 268.38C180.94 268.207 179.866 267.452 178.391 266.335C177.159 265.437 175.846 264.724 174.512 263.988C174.512 263.698 174.512 263.408 174.512 263.109C174.131 262.929 174.131 262.929 173.743 262.745C170.997 261.31 168.955 259.374 167.058 256.96C166.732 256.633 166.407 256.307 166.071 255.971C158.083 247.969 152.66 238.305 148.203 227.969C148.022 227.55 147.841 227.131 147.655 226.7C142.858 214.876 139.709 201.965 138.118 189.316C138.073 188.981 138.029 188.646 137.983 188.301C137.278 182.914 137.138 177.613 137.241 172.185C137.655 172.044 138.07 171.902 138.497 171.757C148.88 168.217 148.88 168.217 159.204 164.509C161.558 163.641 163.922 162.827 166.308 162.05C167.661 161.586 168.988 161.069 170.319 160.545C172.642 159.636 174.98 158.887 177.371 158.179C179.454 157.511 181.487 156.722 183.515 155.902C185.129 155.269 186.383 154.999 188.105 155.054Z" fill="#27AE60"/>
<path d="M231.078 78.186C231.379 78.2682 231.68 78.3505 231.99 78.4352C239.77 80.5775 246.945 83.7561 251.383 90.8521C255.531 98.624 255.022 107.946 252.681 116.218C251.6 119.742 250.5 123.21 248.425 126.284C246.186 129.693 247.268 133.75 247.99 137.529C248.227 139.127 248.172 140.641 248.038 142.247C248.239 143.601 248.934 144.046 249.933 144.952C250.491 145.639 251.04 146.334 251.577 147.038C251.846 147.389 252.115 147.74 252.392 148.102C252.594 148.367 252.795 148.632 253.002 148.905C249.56 151.203 245.944 153.141 242.235 154.962C240.529 155.802 238.843 156.668 237.17 157.571C236.795 157.773 236.42 157.975 236.033 158.183C235.3 158.58 234.568 158.979 233.838 159.381C233.504 159.561 233.169 159.742 232.825 159.927C232.53 160.089 232.235 160.25 231.931 160.417C231.078 160.764 231.078 160.764 229.324 160.764C228.957 160.052 228.592 159.338 228.228 158.623C228.024 158.226 227.821 157.828 227.611 157.419C227.132 156.372 227.132 156.372 227.132 155.493C225.036 156.653 225.036 156.653 223.076 158.019C222.308 158.568 222.308 158.568 220.993 158.568C220.845 158.086 220.697 157.605 220.544 157.108C220.347 156.469 220.149 155.83 219.952 155.192C219.854 154.875 219.757 154.558 219.657 154.232C219.241 152.889 218.815 151.577 218.29 150.272C217.924 149.344 217.924 149.344 217.924 148.411C218.607 147.127 219.697 146.822 220.993 146.269C220.67 146.253 220.347 146.236 220.015 146.22C215.748 145.932 215.748 145.932 213.977 144.512C213.552 144.213 213.127 143.914 212.689 143.606C210.877 142.057 209.837 139.996 208.715 137.924C208.532 137.592 208.349 137.261 208.16 136.92C207.334 135.361 206.961 134.448 206.961 132.653C206.672 132.653 206.383 132.653 206.085 132.653C204.839 129.827 204.663 127.116 204.668 124.077C204.668 123.694 204.667 123.311 204.667 122.916C204.67 121.311 204.679 119.707 204.71 118.102C204.804 112.521 204.434 109.395 200.823 104.98C198.758 100.859 199.104 96.595 200.466 92.2968C200.767 91.3983 201.076 90.5037 201.392 89.6105C201.691 88.7516 201.969 87.8884 202.241 87.0207C203.382 83.5294 204.36 80.8119 207.578 78.8654C215.076 75.1102 223.307 75.9742 231.078 78.186Z" fill="#F3AE9F"/>
<path d="M241.607 12.7382C250.4 12.7206 250.4 12.7206 254.146 12.7167C256.703 12.7141 259.26 12.711 261.817 12.705C263.878 12.7003 265.939 12.6976 268 12.6965C268.787 12.6957 269.574 12.6941 270.361 12.6917C271.462 12.6886 272.563 12.6881 273.664 12.6883C273.99 12.6867 274.316 12.6852 274.651 12.6835C276.123 12.6865 277.471 12.7166 278.878 13.1774C278.888 17.866 278.896 22.5546 278.9 27.2433C278.903 29.4201 278.906 31.597 278.911 33.7739C278.915 35.8729 278.918 37.9719 278.919 40.0709C278.92 40.8735 278.922 41.6762 278.924 42.4788C278.927 43.599 278.928 44.7192 278.927 45.8395C278.929 46.1747 278.93 46.5099 278.932 46.8553C278.928 49.1456 278.928 49.1456 278.439 49.6349C277.111 49.6739 275.792 49.6855 274.464 49.6778C274.065 49.6772 273.667 49.6766 273.256 49.676C271.978 49.6735 270.701 49.668 269.423 49.6624C268.559 49.6602 267.695 49.6582 266.83 49.6564C264.707 49.6515 262.584 49.6439 260.461 49.6349C260.461 50.0698 260.461 50.5047 260.461 50.9527C259.304 50.9527 258.146 50.9527 256.953 50.9527C256.509 52.5431 256.296 54.1496 256.077 55.7844C256.728 56.2193 256.728 56.2193 257.392 56.6629C257.17 57.6155 256.954 58.4197 256.515 59.2984C256.226 59.2984 255.936 59.2984 255.638 59.2984C255.638 59.5883 255.638 59.8782 255.638 60.1769C254.651 61.1377 254.651 61.1377 253.446 61.9339C252.35 61.8673 251.774 61.5451 250.842 60.973C249.907 60.491 249.907 60.491 248.814 61.0005C248.461 61.1635 248.109 61.3266 247.745 61.4946C247.311 61.4946 246.877 61.4946 246.43 61.4946C246.439 61.9929 246.448 62.4912 246.457 63.0045C246.43 64.5693 246.43 64.5693 245.991 65.0086C245.051 65.0522 244.11 65.0656 243.169 65.0635C242.654 65.0646 242.139 65.0658 241.608 65.0669C240.291 65.0086 240.291 65.0086 239.414 64.5693C239.414 63.5547 239.414 62.54 239.414 61.4946C239.025 61.4312 238.636 61.3678 238.236 61.3024C236.783 61.0554 236.783 61.0554 235.578 60.7534C235.252 60.7081 234.926 60.6628 234.591 60.6161C234.157 61.051 234.157 61.051 233.714 61.4946C232.048 61.3629 230.991 60.8723 229.768 59.7376C229.768 59.4477 229.768 59.1578 229.768 58.8591C229.478 58.8591 229.189 58.8591 228.891 58.8591C228.674 57.5546 228.674 57.5546 228.452 56.2236C228.742 56.2236 229.031 56.2236 229.329 56.2236C229.184 54.4842 229.04 52.7448 228.891 50.9527C228.022 50.9527 227.154 50.9527 226.26 50.9527C225.97 50.8077 225.681 50.6628 225.383 50.5134C225.383 48.3392 225.383 46.1649 225.383 43.9247C226.54 43.9247 227.698 43.9247 228.891 43.9247C228.954 43.5352 229.017 43.1456 229.083 42.7443C229.329 41.2892 229.329 41.2892 229.631 40.0813C229.698 39.5921 229.698 39.5921 229.768 39.093C229.478 38.8031 229.189 38.5132 228.891 38.2145C229.055 36.8419 229.055 36.8419 229.329 35.579C229.619 35.579 229.908 35.579 230.206 35.579C230.206 35.2891 230.206 34.9992 230.206 34.7005C230.496 34.7005 230.785 34.7005 231.083 34.7005C231.083 34.4106 231.083 34.1207 231.083 33.822C232.399 32.9436 232.399 32.9436 233.577 33.1083C233.912 33.1989 234.246 33.2895 234.591 33.3828C234.736 33.8177 234.88 34.2525 235.029 34.7005C235.509 34.4831 235.988 34.2657 236.482 34.0417C238.099 33.3828 238.099 33.3828 239.414 33.3828C239.405 32.9661 239.396 32.5493 239.387 32.12C239.414 30.7473 239.414 30.7473 239.853 29.8688C240.431 29.8688 241.01 29.8688 241.607 29.8688C241.607 24.2157 241.607 18.5626 241.607 12.7382Z" fill="#94D5AC"/>
<path d="M231.079 78.186C231.38 78.2682 231.681 78.3505 231.991 78.4352C239.771 80.5775 246.946 83.7561 251.384 90.8521C255.731 98.9968 254.941 108.733 252.355 117.32C250.886 121.884 249 125.972 246.426 130.017C246.136 130.017 245.847 130.017 245.549 130.017C245.115 124.799 244.68 119.581 244.233 114.204C243.365 113.914 242.497 113.624 241.602 113.326C241.612 113.808 241.623 114.289 241.633 114.786C241.641 115.425 241.649 116.064 241.657 116.702C241.664 117.019 241.672 117.336 241.679 117.662C241.696 119.478 241.643 120.958 240.725 122.55C240.074 122.767 240.074 122.767 239.41 122.989C238.673 120.662 238.022 118.328 237.464 115.951C236.353 111.146 236.353 111.146 233.682 107.066C230.379 105.095 226.551 104.217 222.862 103.235C221.413 102.778 220.139 102.182 218.801 101.466C219.412 103.414 220.382 104.485 221.871 105.859C215.389 106.021 215.389 106.021 212.663 104.98C213.241 105.705 213.82 106.43 214.416 107.176C210.918 107.382 207.508 107.011 204.331 105.419C204.331 106.724 204.331 108.028 204.331 109.373C201.545 106.98 199.796 103.61 199.388 99.9493C199.253 96.2276 200.17 93.069 201.393 89.6105C201.692 88.7516 201.97 87.8884 202.242 87.0207C203.382 83.5294 204.361 80.8119 207.579 78.8654C215.076 75.1102 223.308 75.9742 231.079 78.186Z" fill="#33374D"/>
<path d="M41.6596 133.092C41.949 133.092 42.2384 133.092 42.5366 133.092C42.6813 165.996 42.826 198.9 42.975 232.801C44.4944 230.409 44.4944 230.409 46.0444 227.969C49.5457 223.479 53.7455 219.68 58.7604 216.988C59.0984 216.806 59.4364 216.625 59.7846 216.437C62.1089 215.231 62.1089 215.231 63.1452 215.231C63.1452 215.521 63.1452 215.811 63.1452 216.11C62.663 216.344 62.1809 216.578 61.6842 216.82C57.8964 218.714 54.7426 220.623 51.7464 223.633C50.8677 224.455 50.8677 224.455 49.9907 224.455C49.8101 224.849 49.8101 224.849 49.6259 225.25C49.1357 226.171 48.6424 226.799 47.9354 227.558C45.923 229.846 43.9427 232.528 42.975 235.437C76.4005 235.437 109.826 235.437 144.264 235.437C144.264 235.726 144.264 236.016 144.264 236.315C110.549 236.46 76.8346 236.605 42.0981 236.754C40.8698 239.953 39.6722 243.166 38.5902 246.418C42.7865 246.418 46.9828 246.418 51.3062 246.418C50.5141 249.856 49.7213 253.261 48.7849 256.658C48.6812 257.035 48.5775 257.413 48.4707 257.802C47.5862 261.004 46.6684 264.195 45.7361 267.383C45.5961 267.863 45.4562 268.342 45.312 268.837C44.9718 270.002 44.6313 271.168 44.2905 272.333C44.5659 272.332 44.8413 272.331 45.1251 272.33C61.4594 272.261 77.7937 272.208 94.1282 272.176C96.0908 272.172 98.0534 272.168 100.016 272.164C100.407 272.164 100.797 272.163 101.2 272.162C107.521 272.149 113.842 272.124 120.163 272.096C126.652 272.067 133.141 272.05 139.63 272.044C143.632 272.04 147.633 272.026 151.635 272.001C154.382 271.985 157.129 271.98 159.875 271.984C161.459 271.986 163.042 271.983 164.625 271.967C166.346 271.949 168.066 271.955 169.786 271.964C170.281 271.955 170.776 271.946 171.286 271.936C175.031 271.985 177.647 273.19 180.658 275.408C180.658 275.553 180.658 275.698 180.658 275.847C122.779 275.847 64.8991 275.847 5.26562 275.847C5.26562 274.688 5.26562 273.528 5.26562 272.333C12.79 272.333 20.3143 272.333 28.0667 272.333C26.0021 264.397 26.0021 264.397 23.7555 256.532C23.2034 254.654 22.7075 252.763 22.2294 250.865C22.1541 250.57 22.0789 250.274 22.0014 249.97C21.6991 248.747 21.4894 247.683 21.4894 246.418C25.541 246.418 29.5926 246.418 33.7669 246.418C31.3395 242.79 28.899 239.476 25.8743 236.315C25.5125 235.935 25.1508 235.554 24.7781 235.162C24.4163 234.818 24.0546 234.473 23.6818 234.119C23.4049 233.849 23.1279 233.579 22.8426 233.3C19.2308 229.906 15.1417 227.917 10.5274 226.212C10.5274 225.922 10.5274 225.633 10.5274 225.334C19.4142 227.535 26.2399 233.834 31.5745 241.064C31.7803 241.343 31.986 241.622 32.198 241.909C33.2404 243.361 34.0707 244.705 34.6439 246.418C34.9333 246.418 35.2227 246.418 35.5208 246.418C35.1665 224.947 35.1665 224.947 28.5051 204.689C28.2717 204.2 28.0383 203.711 27.7978 203.207C25.8605 199.353 23.325 196.148 20.6125 192.83C20.1699 192.247 19.7293 191.663 19.297 191.073C21.2291 191.664 22.1168 192.475 23.2434 194.147C23.2434 194.437 23.2434 194.727 23.2434 195.026C23.6775 195.171 24.1116 195.316 24.5588 195.465C25.1425 196.203 25.1425 196.203 25.7304 197.167C25.948 197.524 26.1656 197.88 26.3898 198.248C26.6176 198.634 26.8454 199.02 27.0801 199.418C27.3147 199.814 27.5492 200.209 27.7909 200.617C29.8639 204.189 31.5149 207.826 32.89 211.717C33.0691 212.223 33.2483 212.728 33.4329 213.249C34.344 216.021 34.9385 218.753 35.3143 221.646C35.4393 222.548 35.5795 223.449 35.7482 224.344C36.5864 228.887 36.496 233.39 36.4526 237.99C36.4482 238.81 36.4442 239.631 36.4406 240.451C36.4311 242.44 36.416 244.429 36.3978 246.418C36.8319 246.418 37.266 246.418 37.7133 246.418C37.7585 245.986 37.8037 245.555 37.8503 245.11C38.1248 243.188 38.765 241.466 39.4672 239.664C39.587 239.347 39.7068 239.029 39.8303 238.702C40.7171 236.381 40.7171 236.381 41.2211 235.876C41.293 234.507 41.3351 233.148 41.3589 231.778C41.3725 231.112 41.3725 231.112 41.3863 230.432C41.4159 228.907 41.4413 227.382 41.466 225.857C41.4753 225.318 41.4845 224.779 41.494 224.224C41.7706 207.62 41.7099 191.014 41.6912 174.408C41.6862 169.889 41.6838 165.37 41.6817 160.85C41.6771 151.598 41.6695 142.345 41.6596 133.092Z" fill="#35394D"/>
<path d="M45.6018 88.124C47.5009 89.3058 48.7566 90.375 49.9866 92.2419C50.2427 92.6037 50.2427 92.6037 50.5039 92.9728C52.2168 95.7537 51.9003 98.7406 51.7405 101.905C52.0469 101.895 52.3533 101.885 52.6689 101.874C53.0679 101.867 53.467 101.859 53.8781 101.85C54.4733 101.835 54.4733 101.835 55.0805 101.82C56.1254 101.905 56.1254 101.905 57.0023 102.784C57.1166 103.814 57.1166 103.814 57.1228 105.121C57.1269 105.609 57.1311 106.097 57.1354 106.6C57.135 107.129 57.1346 107.659 57.1342 108.204C57.1361 108.746 57.138 109.287 57.1399 109.845C57.1431 111.287 57.1417 112.728 57.1392 114.17C57.1394 115.054 57.1438 115.937 57.1497 116.821C57.1604 118.515 57.1623 120.209 57.1616 121.903C57.1657 122.432 57.1697 122.96 57.1739 123.505C57.1711 123.994 57.1684 124.484 57.1656 124.988C57.1659 125.419 57.1661 125.851 57.1664 126.295C57.0023 127.382 57.0023 127.382 56.5215 128.18C55.2511 128.97 54.179 128.86 52.6936 128.856C52.3912 128.857 52.0888 128.858 51.7772 128.859C50.7777 128.86 49.7785 128.852 48.7791 128.844C48.0851 128.842 47.3911 128.841 46.6971 128.841C45.2429 128.839 43.7888 128.833 42.3347 128.823C40.4684 128.811 38.6023 128.806 36.736 128.804C35.3032 128.802 33.8704 128.798 32.4377 128.792C31.7494 128.79 31.0611 128.788 30.3728 128.786C29.4122 128.783 28.4517 128.777 27.4912 128.77C26.9441 128.767 26.3969 128.764 25.8332 128.761C24.5547 128.699 24.5547 128.699 23.6777 128.26C23.6676 124.889 23.6598 121.517 23.655 118.146C23.6527 116.581 23.6496 115.015 23.6447 113.45C23.639 111.652 23.6369 109.854 23.6349 108.057C23.6326 107.492 23.6304 106.927 23.6281 106.346C23.628 105.827 23.628 105.308 23.628 104.773C23.627 104.314 23.626 103.855 23.625 103.381C23.6777 102.345 23.6777 102.345 24.1162 101.905C24.8555 101.874 25.5961 101.869 26.336 101.878C26.739 101.882 27.142 101.886 27.5573 101.89C27.8687 101.895 28.1801 101.9 28.501 101.905C28.4858 101.566 28.4705 101.226 28.4548 100.876C28.3421 96.5338 28.8365 94.151 31.6526 90.8144C35.5732 86.7167 40.2995 85.4001 45.6018 88.124Z" fill="#94D5AC"/>
<path d="M239.853 29.8688C242.023 29.8688 244.194 29.8688 246.43 29.8688C246.647 31.6082 246.647 31.6082 246.868 33.3828C247.881 33.5277 248.894 33.6727 249.938 33.822C249.938 34.1119 249.938 34.4018 249.938 34.7005C250.254 34.4831 250.571 34.2656 250.897 34.0416C252.235 33.3269 252.841 33.0783 254.323 33.3828C256.077 35.1872 256.077 35.1872 256.077 36.4575C256.511 36.6024 256.945 36.7474 257.392 36.8967C257.184 37.8704 256.945 38.6707 256.488 39.5597C255.981 40.4508 255.981 40.4508 256.077 41.7284C256.366 41.7284 256.655 41.7284 256.953 41.7284C256.953 42.4532 256.953 43.178 256.953 43.9247C257.451 43.9156 257.948 43.9066 258.461 43.8972C260.023 43.9247 260.023 43.9247 260.461 44.3639C260.493 45.4754 260.502 46.5747 260.489 47.6857C260.487 47.998 260.485 48.3103 260.483 48.632C260.478 49.4056 260.47 50.1791 260.461 50.9526C259.304 50.9526 258.146 50.9526 256.953 50.9526C256.509 52.5431 256.296 54.1495 256.077 55.7844C256.728 56.2192 256.728 56.2192 257.392 56.6628C257.17 57.6155 256.954 58.4197 256.515 59.2983C256.226 59.2983 255.936 59.2983 255.638 59.2983C255.638 59.5882 255.638 59.8781 255.638 60.1768C254.651 61.1377 254.651 61.1377 253.446 61.9338C252.35 61.8673 251.774 61.5451 250.842 60.973C249.907 60.491 249.907 60.491 248.814 61.0004C248.461 61.1635 248.109 61.3266 247.745 61.4946C247.311 61.4946 246.877 61.4946 246.43 61.4946C246.439 61.9928 246.448 62.4911 246.457 63.0045C246.43 64.5693 246.43 64.5693 245.991 65.0085C245.051 65.0521 244.11 65.0655 243.169 65.0634C242.654 65.0646 242.139 65.0657 241.608 65.0669C240.291 65.0085 240.291 65.0085 239.414 64.5693C239.414 63.5546 239.414 62.54 239.414 61.4946C239.025 61.4312 238.636 61.3677 238.236 61.3024C236.783 61.0553 236.783 61.0553 235.578 60.7533C235.252 60.708 234.926 60.6627 234.591 60.6161C234.157 61.0509 234.157 61.0509 233.714 61.4946C232.048 61.3628 230.991 60.8723 229.768 59.7376C229.768 59.4477 229.768 59.1578 229.768 58.8591C229.478 58.8591 229.189 58.8591 228.891 58.8591C228.746 57.9894 228.601 57.1197 228.452 56.2236C228.742 56.2236 229.031 56.2236 229.329 56.2236C229.184 54.4842 229.04 52.7448 228.891 50.9526C228.022 50.9526 227.154 50.9526 226.26 50.9526C225.97 50.8077 225.681 50.6627 225.383 50.5134C225.383 48.3391 225.383 46.1648 225.383 43.9247C226.54 43.9247 227.698 43.9247 228.891 43.9247C228.954 43.5351 229.017 43.1456 229.083 42.7442C229.329 41.2892 229.329 41.2892 229.631 40.0813C229.698 39.5921 229.698 39.5921 229.768 39.093C229.478 38.8031 229.189 38.5132 228.891 38.2145C229.055 36.8418 229.055 36.8418 229.329 35.579C229.619 35.579 229.908 35.579 230.206 35.579C230.206 35.2891 230.206 34.9992 230.206 34.7005C230.496 34.7005 230.785 34.7005 231.083 34.7005C231.083 34.4106 231.083 34.1207 231.083 33.822C232.399 32.9435 232.399 32.9435 233.577 33.1082C233.912 33.1988 234.246 33.2894 234.591 33.3828C234.736 33.8176 234.88 34.2525 235.029 34.7005C235.509 34.4831 235.988 34.2656 236.482 34.0416C238.099 33.3828 238.099 33.3828 239.414 33.3828C239.405 32.966 239.396 32.5493 239.387 32.1199C239.414 30.7473 239.414 30.7473 239.853 29.8688Z" fill="#27AE60"/>
<path d="M9.64844 181.409C14.7711 183.018 19.575 185.606 24.1183 188.437C24.5507 188.703 24.9831 188.968 25.4286 189.242C28.8461 191.422 31.7377 193.977 34.6419 196.783C34.3525 197.507 34.0631 198.232 33.7649 198.979C34.2804 198.952 34.7959 198.925 35.327 198.897C36.7402 199.067 37.183 199.317 38.1429 200.4C41.5498 205.679 42.1794 210.286 42.1201 216.446C42.1149 216.986 42.1097 217.526 42.1044 218.082C42.0919 219.222 42.0778 220.362 42.0622 221.502C42.0483 222.662 42.039 223.823 42.0344 224.983C42.0277 226.667 42.0069 228.351 41.983 230.035C41.9834 230.548 41.9837 231.061 41.9841 231.59C41.912 235.12 41.0726 237.595 39.4652 240.707C39.0703 241.752 38.7626 242.79 38.4512 243.865C38.3082 244.351 38.1652 244.837 38.0179 245.338C37.9167 245.695 37.8155 246.051 37.7113 246.418C37.2772 246.418 36.8431 246.418 36.3958 246.418C36.3917 245.945 36.3876 245.473 36.3834 244.986C36.2172 228.617 35.8957 207.263 23.3595 194.705C23.1758 194.521 22.9922 194.337 22.8029 194.147C22.8029 193.857 22.8029 193.567 22.8029 193.269C22.3688 193.124 21.9347 192.979 21.4874 192.829C21.4874 192.54 21.4874 192.25 21.4874 191.951C21.0533 191.951 20.6192 191.951 20.172 191.951C20.3794 192.165 20.5869 192.379 20.8006 192.6C30.1481 202.639 35.2842 216.992 35.0804 230.605C33.4888 230.364 32.4283 229.999 31.134 229.04C30.8537 228.84 30.5733 228.64 30.2845 228.434C28.0424 226.192 26.8137 223.358 25.7352 220.42C25.6068 220.081 25.4784 219.743 25.3461 219.394C24.6504 217.557 23.9728 215.713 23.2962 213.869C23.0137 213.105 22.7305 212.343 22.4466 211.58C22.3055 211.199 22.1643 210.819 22.0188 210.427C20.7469 207.081 19.2219 203.877 17.568 200.704C16.525 198.631 15.9245 197.352 16.6641 195.026C16.7455 194.681 16.8269 194.337 16.9108 193.983C16.9741 193.747 17.0374 193.511 17.1026 193.269C16.0897 193.269 15.0768 193.269 14.0333 193.269C13.4643 191.87 12.8989 190.469 12.3341 189.068C12.1742 188.675 12.0142 188.282 11.8494 187.877C10.9904 185.741 10.2283 183.638 9.64844 181.409Z" fill="#27AE60"/>
<path d="M218.362 188.876C219.705 189.727 219.705 189.727 220.555 191.073C220.936 192.79 220.955 194.304 220.089 195.867C219.513 196.591 219.513 196.591 218.362 197.661C218.073 197.661 217.784 197.661 217.485 197.661C217.341 198.096 217.196 198.531 217.047 198.979C216.758 198.979 216.468 198.979 216.17 198.979C216.057 199.241 215.944 199.502 215.827 199.772C215.246 200.82 214.686 201.351 213.763 202.105C211.49 204.034 209.413 206.139 207.318 208.258C206.934 208.645 206.55 209.032 206.154 209.43C205.781 209.805 205.409 210.181 205.025 210.568C204.672 210.922 204.32 211.277 203.957 211.642C203.402 212.204 202.85 212.769 202.305 213.34C201.358 214.329 200.838 214.787 199.508 215.231C199.508 215.521 199.508 215.811 199.508 216.11C197.621 218.204 197.621 218.204 196 218.745C196 219.035 196 219.325 196 219.624C195.362 220.252 195.362 220.252 194.475 220.984C192.133 222.979 190.016 225.17 187.876 227.378C187.578 227.681 187.28 227.985 186.973 228.297C186.706 228.572 186.439 228.847 186.164 229.13C185.476 229.726 185.476 229.726 184.599 229.726C184.382 230.379 184.382 230.379 184.161 231.044C182.407 231.044 182.407 231.044 181.336 230.057C180.966 229.658 180.596 229.259 180.214 228.848C179.501 228.243 178.779 227.648 178.049 227.063C176.132 225.509 174.246 223.926 172.377 222.314C171.859 221.868 171.341 221.422 170.823 220.976C170.565 220.753 170.307 220.531 170.041 220.302C168.731 219.175 167.417 218.053 166.101 216.933C165.864 216.731 165.627 216.528 165.383 216.319C164.361 215.451 163.353 214.659 162.237 213.913C162.237 213.624 162.237 213.334 162.237 213.035C161.974 212.917 161.712 212.799 161.442 212.678C160.454 212.141 159.878 211.706 159.167 210.839C158.865 209.49 158.921 208.242 159.167 206.885C160.044 205.54 160.044 205.54 161.36 204.689C164.157 204.289 165.195 204.759 167.499 206.446C168.425 207.204 169.336 207.968 170.239 208.752C172.282 210.505 174.35 212.214 176.458 213.888C178.614 215.62 180.727 217.405 182.845 219.184C185.864 216.7 188.563 213.916 191.291 211.121C191.902 210.495 192.517 209.873 193.131 209.25C193.492 208.88 193.854 208.51 194.227 208.13C195.123 207.325 195.123 207.325 196 207.325C196 207.035 196 206.745 196 206.446C196.705 205.765 196.705 205.765 197.644 204.991C198.675 204.116 199.538 203.333 200.385 202.273C201.163 201.299 201.896 200.601 202.841 199.801C205.151 197.799 207.259 195.614 209.385 193.421C209.683 193.117 209.981 192.814 210.288 192.502C210.689 192.09 210.689 192.09 211.097 191.669C211.785 191.073 211.785 191.073 212.662 191.073C212.662 190.783 212.662 190.493 212.662 190.194C214.191 188.463 216.224 188.484 218.362 188.876Z" fill="#FAFBFA"/>
<path d="M46.4777 272.773C62.9375 272.712 79.3974 272.666 95.8574 272.638C97.8014 272.635 99.7453 272.631 101.689 272.628C102.076 272.627 102.463 272.626 102.862 272.626C109.125 272.614 115.389 272.593 121.652 272.569C128.081 272.545 134.509 272.53 140.938 272.525C144.903 272.521 148.869 272.51 152.834 272.488C155.555 272.474 158.276 272.47 160.996 272.473C162.565 272.475 164.134 272.473 165.703 272.458C167.407 272.443 169.11 272.448 170.814 272.456C171.306 272.448 171.798 272.44 172.305 272.432C175.674 272.471 177.993 273.3 180.653 275.408C180.653 275.553 180.653 275.698 180.653 275.847C132.758 275.847 84.8623 275.847 35.5156 275.847C35.5156 275.702 35.5156 275.557 35.5156 275.408C38.699 275.263 41.8824 275.118 45.1622 274.969C45.1622 274.679 45.1622 274.389 45.1622 274.09C45.5963 274.09 46.0304 274.09 46.4777 274.09C46.4777 273.655 46.4777 273.221 46.4777 272.773Z" fill="#313549"/>
<path d="M71.2742 111.082C71.9891 111.084 72.704 111.088 73.4189 111.093C74.0077 111.096 74.0077 111.096 74.6083 111.098C75.934 111.103 77.2597 111.112 78.5854 111.12C79.5315 111.124 80.4777 111.129 81.4238 111.133C84.0011 111.144 86.5785 111.159 89.1558 111.174C91.846 111.189 94.5362 111.201 97.2264 111.214C102.325 111.239 107.423 111.266 112.521 111.294C118.324 111.325 124.126 111.354 129.929 111.383C141.868 111.442 153.808 111.504 165.748 111.569C165.748 112.873 165.748 114.178 165.748 115.522C153.3 115.532 140.852 115.54 128.404 115.545C122.624 115.547 116.845 115.55 111.065 115.555C106.03 115.56 100.994 115.562 95.9582 115.563C93.2903 115.564 90.6224 115.565 87.9545 115.568C85.446 115.571 82.9375 115.572 80.4291 115.572C79.506 115.572 78.5829 115.573 77.6599 115.574C76.4044 115.577 75.1489 115.576 73.8935 115.575C73.5241 115.576 73.1547 115.577 72.7741 115.579C70.2592 115.572 70.2592 115.572 69.2821 115.083C69.2393 112.38 69.2393 112.38 69.2821 111.569C69.7206 111.13 69.7206 111.13 71.2742 111.082Z" fill="#94D5AC"/>
<path d="M69.2812 126.503C101.115 126.503 132.949 126.503 165.747 126.503C165.747 127.808 165.747 129.112 165.747 130.456C133.913 130.456 102.08 130.456 69.2812 130.456C69.2812 129.152 69.2812 127.847 69.2812 126.503Z" fill="#94D5AC"/>
<path d="M69.2812 96.1951C101.115 96.1951 132.949 96.1951 165.747 96.1951C165.747 97.4997 165.747 98.8043 165.747 100.148C133.913 100.148 102.08 100.148 69.2812 100.148C69.2812 98.8438 69.2812 97.5392 69.2812 96.1951Z" fill="#94D5AC"/>
<path d="M69.2812 81.2607C101.115 81.2607 132.949 81.2607 165.747 81.2607C165.747 82.5653 165.747 83.8699 165.747 85.214C133.913 85.214 102.08 85.214 69.2812 85.214C69.2812 83.9094 69.2812 82.6048 69.2812 81.2607Z" fill="#94D5AC"/>
<path d="M69.2812 141.877C101.115 141.877 132.949 141.877 165.747 141.877C165.747 143.036 165.747 144.196 165.747 145.391C134.058 145.391 102.369 145.391 69.7197 145.391C69.2812 144.512 69.2812 144.512 69.2812 141.877Z" fill="#94D5AC"/>
<path d="M73.6647 208.642C71.6403 212.072 69.3611 214.963 66.649 217.867C65.7616 218.883 64.8899 219.911 64.0181 220.941C63.4393 220.651 62.8605 220.361 62.2642 220.063C62.3789 220.379 62.4936 220.696 62.6119 221.022C62.7026 222.259 62.7026 222.259 61.8479 223.373C61.4517 223.739 61.0555 224.105 60.6473 224.483C60.2567 224.85 59.8661 225.218 59.4637 225.596C59.0856 225.944 58.7074 226.293 58.3178 226.651C58.025 226.948 57.7323 227.245 57.4306 227.551C56.4618 228.51 55.4514 229.382 54.3989 230.248C54.0332 230.553 53.6675 230.858 53.2907 231.173C52.1467 231.944 51.3432 232.199 49.9867 232.362C49.9867 232.072 49.9867 231.782 49.9867 231.483C49.6973 231.483 49.4079 231.483 49.1097 231.483C49.1097 231.918 49.1097 232.353 49.1097 232.801C48.4704 232.825 47.8309 232.842 47.1914 232.856C46.8353 232.866 46.4792 232.876 46.1123 232.887C45.1634 232.801 45.1634 232.801 44.2864 231.922C49.1777 225.089 54.5296 219.644 62.2642 216.11C62.5536 216.11 62.843 216.11 63.1411 216.11C63.1411 215.82 63.1411 215.53 63.1411 215.231C58.2528 217.425 54.3368 219.912 50.4252 223.577C50.1194 223.848 49.8136 224.119 49.4985 224.399C47.2959 226.439 45.8121 228.914 44.2864 231.483C42.8342 230.028 43.2179 227.996 43.2173 226.038C43.2835 223.268 43.8669 221.379 45.6019 219.184C45.7856 218.919 45.9693 218.653 46.1585 218.38C46.9995 217.238 47.6251 216.608 48.9727 216.137C49.9867 216.11 49.9867 216.11 50.8636 216.549C50.9722 216.214 51.0807 215.878 51.1925 215.533C51.9493 213.903 52.8879 213.271 54.5483 212.624C54.9354 212.51 55.3224 212.397 55.7212 212.28C56.1548 212.152 56.5884 212.024 57.0351 211.892C57.4946 211.762 57.9541 211.632 58.4275 211.497C58.8977 211.362 59.3679 211.227 59.8523 211.088C68.9707 208.521 68.9707 208.521 73.6647 208.642Z" fill="#27AE60"/>
<path d="M41.6562 28.1118C91.7221 28.1118 141.788 28.1118 193.371 28.1118C193.371 67.9735 193.371 107.835 193.371 148.905C193.081 148.905 192.792 148.905 192.494 148.905C192.494 109.333 192.494 69.7612 192.494 28.9903C143.007 28.9903 93.5198 28.9903 42.5332 28.9903C42.5332 46.6744 42.5332 64.3585 42.5332 82.5785C42.2438 82.5785 41.9544 82.5785 41.6562 82.5785C41.6562 64.6045 41.6562 46.6305 41.6562 28.1118Z" fill="#404552"/>
<path d="M311.269 272.213C313.956 272.231 316.644 272.239 319.332 272.247C324.554 272.266 329.776 272.296 334.997 272.333C334.997 273.493 334.997 274.652 334.997 275.847C295.061 275.847 255.124 275.847 213.977 275.847C215.855 274.906 217.181 274.473 219.256 274.48C219.605 274.48 219.953 274.48 220.313 274.48C220.692 274.482 221.071 274.484 221.461 274.487C222.065 274.487 222.065 274.487 222.681 274.488C223.556 274.49 224.431 274.493 225.306 274.496C226.702 274.502 228.097 274.505 229.493 274.507C232.967 274.513 236.441 274.523 239.915 274.534C242.84 274.543 245.764 274.55 248.689 274.554C250.045 274.557 251.401 274.562 252.757 274.568C261.175 274.591 269.517 274.343 277.875 273.312C288.983 271.981 300.1 272.128 311.269 272.213Z" fill="#313549"/>
<path d="M0 222.698C1.9947 222.665 3.98924 222.642 5.98416 222.626C6.65932 222.619 7.33447 222.61 8.00957 222.599C20.7315 222.387 20.7315 222.387 25.4319 226.212C25.4319 226.502 25.4319 226.792 25.4319 227.091C25.866 227.091 26.3001 227.091 26.7474 227.091C28.042 229.576 28.4235 231.757 28.0628 234.558C27.6158 235.569 27.6158 235.569 27.1859 236.315C26.9569 236.07 26.728 235.826 26.4922 235.574C21.864 230.767 16.7903 227.543 10.5236 225.334C10.5236 225.624 10.5236 225.914 10.5236 226.212C10.7841 226.277 11.0447 226.341 11.3132 226.408C17.8474 228.179 22.0624 232.036 26.7474 236.754C26.5303 237.189 26.5303 237.189 26.3089 237.633C22.3456 237.839 19.3554 237.629 15.7853 235.876C15.0565 235.578 14.3262 235.284 13.5929 234.997C13.8373 233.529 14.1856 232.347 14.9084 231.044C14.5104 231.415 14.1125 231.787 13.7025 232.17C12.5505 233.245 12.5505 233.245 11.481 233.227C10.0568 232.594 8.96879 231.598 7.81045 230.577C7.5608 230.361 7.31114 230.144 7.05392 229.921C6.54854 229.482 6.04435 229.041 5.5414 228.599C4.88948 228.027 4.23153 227.463 3.57294 226.899C1.54018 225.14 1.54018 225.14 0.876963 224.455C0.876963 224.165 0.876963 223.876 0.876963 223.577C0.587565 223.577 0.298167 223.577 0 223.577C0 223.287 0 222.997 0 222.698Z" fill="#27AE60"/>
<path d="M249.054 144.073C250.131 145.13 250.131 145.13 251.164 146.489C251.511 146.937 251.857 147.386 252.214 147.848C252.474 148.197 252.733 148.545 253 148.905C249.558 151.203 245.942 153.141 242.233 154.962C240.528 155.802 238.842 156.668 237.169 157.571C236.606 157.874 236.606 157.874 236.032 158.183C235.298 158.58 234.566 158.979 233.836 159.381C233.502 159.561 233.168 159.741 232.823 159.927C232.528 160.089 232.233 160.25 231.929 160.417C231.076 160.764 231.076 160.764 229.322 160.764C228.955 160.052 228.59 159.338 228.226 158.623C228.023 158.226 227.819 157.828 227.61 157.419C227.13 156.372 227.13 156.372 227.13 155.493C225.034 156.653 225.034 156.653 223.074 158.019C222.307 158.568 222.307 158.568 220.991 158.568C220.843 158.086 220.695 157.604 220.542 157.108C220.345 156.469 220.147 155.83 219.95 155.191C219.804 154.716 219.804 154.716 219.655 154.231C219.239 152.889 218.814 151.577 218.288 150.272C217.922 149.344 217.922 149.344 217.922 148.411C218.617 147.104 219.657 146.804 220.991 146.269C221.425 146.269 221.859 146.269 222.307 146.269C223.754 148.878 225.201 151.488 226.692 154.176C228.627 153.529 230.189 152.906 231.969 151.974C232.469 151.714 232.969 151.453 233.484 151.184C234.006 150.909 234.528 150.635 235.05 150.36C235.808 149.964 235.808 149.964 236.58 149.561C239.677 147.945 239.677 147.945 242.737 146.261C243.238 145.98 243.74 145.699 244.256 145.41C244.929 145.025 244.929 145.025 245.615 144.633C246.91 144.051 247.657 143.864 249.054 144.073Z" fill="#35394F"/>
<path d="M44.3705 89.6064C46.9315 91.0051 48.627 92.9819 49.55 95.7559C49.55 97.7852 49.55 99.8145 49.55 101.905C43.328 101.905 37.1059 101.905 30.6953 101.905C30.6953 95.2815 30.6953 95.2815 32.6959 91.9948C36.0472 88.6377 40.0597 87.7087 44.3705 89.6064Z" fill="white"/>
<path d="M242.728 38.9832C243.353 38.9934 243.353 38.9934 243.991 39.0038C245.113 39.093 245.113 39.093 246.428 39.5322C246.428 39.8221 246.428 40.112 246.428 40.4107C246.763 40.5285 247.097 40.6463 247.442 40.7676C248.579 41.2708 249.191 41.6249 249.936 42.607C249.936 43.0418 249.936 43.4767 249.936 43.9247C250.225 43.9247 250.515 43.9247 250.813 43.9247C251.554 46.2453 251.379 48.6119 250.813 50.9527C250.524 50.9527 250.234 50.9527 249.936 50.9527C249.827 51.2063 249.719 51.46 249.607 51.7213C248.78 53.2124 247.825 54.1691 246.346 55.0157C243.356 55.8145 240.37 55.5736 237.659 54.0274C235.694 52.0597 234.902 50.0098 234.891 47.2465C234.934 45.2325 235.155 43.8504 236.343 42.1677C237.412 41.2069 237.412 41.2069 238.536 40.4107C238.798 40.1792 239.06 39.9476 239.33 39.709C240.543 38.9302 241.3 38.9442 242.728 38.9832Z" fill="#FAFCFC"/>
<path d="M69.2822 202.054C74.4772 202.044 79.6722 202.036 84.8672 202.031C87.2791 202.029 89.6911 202.026 92.1031 202.021C94.4287 202.016 96.7543 202.013 99.0799 202.012C99.9693 202.011 100.859 202.01 101.748 202.007C102.989 202.004 104.23 202.004 105.471 202.004C106.029 202.001 106.029 202.001 106.597 201.999C109.134 202.004 109.134 202.004 109.623 202.493C109.684 203.666 109.641 204.832 109.623 206.007C105.083 206.075 100.543 206.14 96.0026 206.201C93.8941 206.23 91.7855 206.26 89.677 206.292C87.6385 206.322 85.6 206.351 83.5615 206.377C82.7875 206.388 82.0135 206.399 81.2395 206.411C77.0793 206.477 72.9863 206.479 68.8438 206.007C68.9884 204.702 69.1331 203.398 69.2822 202.054Z" fill="#94D5AC"/>
<path d="M69.2812 187.119C82.5935 187.119 95.9058 187.119 109.622 187.119C109.622 188.424 109.622 189.728 109.622 191.072C96.3093 191.072 82.997 191.072 69.2812 191.072C69.2812 189.768 69.2812 188.463 69.2812 187.119Z" fill="#94D5AC"/>
<path d="M69.2812 156.811C82.5935 156.811 95.9058 156.811 109.622 156.811C109.622 158.116 109.622 159.42 109.622 160.764C104.491 160.785 99.3611 160.8 94.2308 160.81C91.8489 160.815 89.4669 160.821 87.0849 160.831C84.7877 160.84 82.4906 160.846 80.1934 160.848C79.3154 160.849 78.4374 160.853 77.5594 160.857C76.333 160.864 75.1068 160.865 73.8804 160.864C73.5145 160.867 73.1487 160.87 72.7717 160.874C70.2582 160.865 70.2582 160.865 69.2812 159.886C69.2812 158.871 69.2812 157.857 69.2812 156.811Z" fill="#94D5AC"/>
<path d="M74.3294 216.879C74.9006 216.885 74.9006 216.885 75.4834 216.891C76.7434 216.906 78.003 216.931 79.2628 216.955C80.1359 216.968 81.0089 216.98 81.882 216.991C84.1809 217.022 86.4797 217.061 88.7784 217.101C91.1238 217.141 93.4692 217.174 95.8146 217.207C100.417 217.273 105.02 217.347 109.623 217.427C109.665 220.13 109.665 220.13 109.623 220.941C108.825 221.74 107.724 221.436 106.663 221.44C106.301 221.439 105.939 221.438 105.566 221.437C104.997 221.439 104.997 221.439 104.416 221.44C103.156 221.442 101.896 221.44 100.635 221.439C99.7632 221.439 98.8909 221.44 98.0187 221.44C96.1878 221.441 94.3569 221.44 92.5259 221.438C90.175 221.435 87.8241 221.437 85.4731 221.439C83.671 221.441 81.8688 221.44 80.0667 221.439C79.1997 221.439 78.3327 221.439 77.4658 221.44C76.2552 221.442 75.0447 221.44 73.8341 221.437C73.4731 221.438 73.112 221.439 72.74 221.44C70.2594 221.431 70.2594 221.431 69.2822 220.941C69.121 218.518 69.121 218.518 69.8426 217.568C71.1499 216.564 72.7501 216.84 74.3294 216.879Z" fill="#94D5AC"/>
<path d="M72.2807 171.691C72.8319 171.693 72.8319 171.693 73.3942 171.696C73.7791 171.696 74.1641 171.696 74.5608 171.696C75.8396 171.696 77.1184 171.699 78.3972 171.703C79.2814 171.704 80.1655 171.704 81.0497 171.705C83.3816 171.706 85.7136 171.711 88.0456 171.715C90.4232 171.72 92.8009 171.722 95.1785 171.724C99.8474 171.729 104.516 171.736 109.185 171.746C109.185 173.05 109.185 174.355 109.185 175.699C104.047 175.709 98.9095 175.717 93.7717 175.722C91.3863 175.724 89.0008 175.727 86.6154 175.732C84.3154 175.737 82.0154 175.739 79.7153 175.741C78.8357 175.741 77.9562 175.743 77.0766 175.745C75.8491 175.748 74.6217 175.749 73.3942 175.749C73.0267 175.75 72.6593 175.752 72.2807 175.753C69.7718 175.749 69.7718 175.749 69.2833 175.26C69.2285 173.722 69.2285 173.722 69.2833 172.185C70.0873 171.379 71.211 171.693 72.2807 171.691Z" fill="#94D5AC"/>
<path d="M311.269 272.213C313.956 272.231 316.644 272.239 319.332 272.247C324.554 272.266 329.776 272.296 334.997 272.333C334.997 272.478 334.997 272.623 334.997 272.772C313.727 272.99 313.727 272.99 292.026 273.212C292.026 273.357 292.026 273.502 292.026 273.651C290.543 273.979 289.135 274.16 287.617 274.214C287.203 274.23 286.789 274.247 286.362 274.263C285.934 274.279 285.506 274.294 285.065 274.31C282.384 274.406 279.771 274.541 277.118 274.969C276.069 275.082 275.02 275.185 273.97 275.284C273.165 275.328 273.165 275.328 272.733 275.847C271.973 275.889 271.211 275.901 270.45 275.9C269.955 275.901 269.46 275.901 268.95 275.902C268.402 275.9 267.854 275.899 267.29 275.897C266.716 275.897 266.143 275.897 265.553 275.897C263.977 275.897 262.4 275.895 260.824 275.892C259.178 275.889 257.533 275.889 255.887 275.888C252.769 275.887 249.651 275.883 246.532 275.879C242.983 275.874 239.434 275.871 235.885 275.869C228.582 275.865 221.279 275.857 213.977 275.847C215.748 274.897 217.249 274.473 219.256 274.48C219.605 274.48 219.953 274.48 220.313 274.48C220.692 274.482 221.071 274.484 221.461 274.487C222.065 274.487 222.065 274.487 222.681 274.488C223.556 274.49 224.431 274.493 225.306 274.496C226.702 274.502 228.097 274.505 229.493 274.507C232.967 274.513 236.441 274.523 239.915 274.534C242.84 274.543 245.764 274.55 248.689 274.554C250.045 274.557 251.401 274.562 252.757 274.568C261.175 274.591 269.517 274.343 277.875 273.312C288.983 271.981 300.1 272.128 311.269 272.213Z" fill="#4C444B"/>
<path d="M206.962 110.251C207.251 110.396 207.541 110.541 207.839 110.69C207.839 110.98 207.839 111.27 207.839 111.569C208.273 111.714 208.707 111.859 209.154 112.008C209.444 112.153 209.733 112.298 210.031 112.447C210.031 112.737 210.031 113.027 210.031 113.326C210.755 113.471 211.478 113.616 212.224 113.765C212.224 114.055 212.224 114.345 212.224 114.644C212.513 114.644 212.802 114.644 213.101 114.644C213.226 117.906 213.226 117.906 212.224 119.475C212.513 119.475 212.802 119.475 213.101 119.475C213.245 118.895 213.39 118.316 213.539 117.718C213.684 118.153 213.829 118.588 213.978 119.036C213.833 119.326 213.688 119.616 213.539 119.914C215.058 119.697 215.058 119.697 216.609 119.475C216.898 118.75 217.187 118.026 217.485 117.279C217.775 117.279 218.064 117.279 218.362 117.279C217.823 119.294 217.018 120.674 215.742 122.281C215.176 123.035 215.176 123.035 215.293 124.307C216.161 124.597 217.029 124.887 217.924 125.185C217.924 126.064 217.924 126.064 217.211 126.833C216.17 127.382 216.17 127.382 214.8 127.135C213.384 126.426 213.171 126.197 212.662 124.746C212.672 123.518 212.672 123.518 212.827 122.221C212.9 121.572 212.9 121.572 212.974 120.91C213.016 120.581 213.058 120.253 213.101 119.914C212.834 120.066 212.568 120.217 212.294 120.373C211.347 120.793 211.347 120.793 210.223 120.491C209.211 119.945 208.549 119.496 207.839 118.597C207.839 118.307 207.839 118.017 207.839 117.718C207.405 117.863 206.971 118.008 206.523 118.157C206.74 114.244 206.74 114.244 206.962 110.251Z" fill="#E8AEA2"/>
<path d="M63.1395 215.231C63.1395 215.521 63.1395 215.811 63.1395 216.11C62.6573 216.344 62.1752 216.578 61.6784 216.82C57.8907 218.714 54.7369 220.623 51.7407 223.633C50.862 224.455 50.862 224.455 49.985 224.455C49.8646 224.717 49.7442 224.98 49.6202 225.25C49.13 226.171 48.6367 226.799 47.9297 227.557C43.1371 233.069 40.3225 239.839 38.5845 246.857C37.7076 245.539 37.7076 245.539 37.8326 244.523C37.9451 244.134 38.0575 243.744 38.1734 243.343C38.278 242.962 38.3826 242.582 38.4903 242.19C39.023 240.707 39.023 240.707 39.5551 239.806C41.9319 235.542 41.5281 230.927 41.5169 226.185C41.5208 224.879 41.5277 223.573 41.5394 222.268C41.546 221.46 41.5476 220.651 41.5439 219.843C41.5455 219.481 41.5472 219.118 41.5489 218.745C41.5481 218.426 41.5473 218.107 41.5465 217.778C41.6539 216.988 41.6539 216.988 42.5308 216.11C42.6755 221.618 42.8202 227.126 42.9693 232.801C43.9822 231.206 44.9951 229.612 46.0387 227.969C49.54 223.479 53.7398 219.68 58.7547 216.988C59.0927 216.806 59.4307 216.625 59.7789 216.437C62.1032 215.231 62.1032 215.231 63.1395 215.231Z" fill="#3D4254"/>
<path d="M19.2969 191.073C21.2289 191.664 22.1167 192.475 23.2432 194.147C23.2432 194.437 23.2432 194.727 23.2432 195.026C23.6773 195.171 24.1114 195.316 24.5587 195.465C25.1423 196.203 25.1423 196.203 25.7302 197.167C25.9478 197.524 26.1654 197.88 26.3897 198.248C26.6174 198.634 26.8452 199.02 27.0799 199.418C27.4318 200.012 27.4318 200.012 27.7907 200.617C29.8638 204.189 31.5147 207.826 32.8898 211.717C33.069 212.223 33.2482 212.728 33.4328 213.249C34.3438 216.02 34.9383 218.753 35.3142 221.646C35.4391 222.548 35.5794 223.449 35.7481 224.344C36.5862 228.887 36.4958 233.39 36.4525 237.99C36.4481 238.81 36.4441 239.63 36.4405 240.451C36.4309 242.44 36.4158 244.429 36.3977 246.418C36.253 246.418 36.1083 246.418 35.9592 246.418C35.5631 244.707 35.4494 243.091 35.4128 241.337C35.3991 240.775 35.3854 240.213 35.3714 239.633C35.3646 239.338 35.3579 239.043 35.351 238.739C35.0612 226.762 33.9027 215.575 28.505 204.689C28.2715 204.2 28.0381 203.711 27.7976 203.207C25.8604 199.353 23.3248 196.148 20.6123 192.829C20.1698 192.247 19.7291 191.663 19.2969 191.073Z" fill="#334185"/>
<path d="M144.261 235.876C144.406 236.166 144.55 236.456 144.699 236.754C142.287 237.163 139.968 237.254 137.524 237.243C136.917 237.243 136.917 237.243 136.298 237.244C134.948 237.243 133.597 237.24 132.246 237.236C131.276 237.236 130.305 237.235 129.335 237.234C127.248 237.233 125.161 237.23 123.075 237.226C119.777 237.221 116.479 237.218 113.182 237.216C108.561 237.213 103.94 237.208 99.3194 237.202C98.8799 237.202 98.8799 237.202 98.4316 237.201C96.3515 237.199 94.2714 237.196 92.1912 237.193C89.8121 237.19 87.4329 237.187 85.0537 237.184C84.7606 237.184 84.4674 237.184 84.1654 237.183C79.2813 237.177 74.3971 237.173 69.513 237.17C66.2325 237.168 62.952 237.163 59.6715 237.158C57.6349 237.154 55.5983 237.153 53.5617 237.152C52.6148 237.151 51.6679 237.149 50.7209 237.147C49.4322 237.144 48.1434 237.143 46.8547 237.144C46.4767 237.142 46.0988 237.14 45.7094 237.139C44.2464 237.141 43.0541 237.166 41.6562 237.633C41.8009 237.198 41.9456 236.763 42.0947 236.315C75.8096 236.17 109.524 236.025 144.261 235.876Z" fill="#D0D7E6"/>
<path d="M203.897 104.98C204.286 105.115 204.286 105.115 204.683 105.253C206.456 105.858 208.18 106.437 210.035 106.737C210.035 106.882 210.035 107.027 210.035 107.176C206.277 107.741 206.277 107.741 204.774 107.176C205.208 108.191 205.642 109.206 206.089 110.251C206.378 109.961 206.668 109.671 206.966 109.373C207.653 110.748 207.202 112.124 206.993 113.6C206.373 118.391 206.275 123.026 206.966 127.821C206.993 128.69 207.004 129.56 206.993 130.429C206.989 130.85 206.986 131.27 206.981 131.704C206.976 132.017 206.971 132.33 206.966 132.653C206.677 132.653 206.387 132.653 206.089 132.653C204.353 128.248 204.543 123.783 204.5 119.118C204.483 117.886 204.466 116.653 204.446 115.421C204.434 114.658 204.425 113.896 204.418 113.133C204.395 111.376 204.285 109.775 203.897 108.055C203.88 107.03 203.877 106.005 203.897 104.98Z" fill="#EEB1A6"/>
<path d="M244.676 130.896C245.115 132.213 245.115 132.213 244.676 133.531C243.966 134.284 243.23 135.012 242.484 135.727C242.251 135.969 242.019 136.211 241.78 136.46C239.961 138.349 238.028 139.906 235.906 141.438C235.275 141.912 234.645 142.388 234.015 142.865C231.255 144.952 231.255 144.952 229.768 144.952C229.768 145.241 229.768 145.531 229.768 145.83C228.682 146.047 228.682 146.047 227.575 146.269C227.575 146.559 227.575 146.849 227.575 147.148C226.128 147.728 224.681 148.307 223.19 148.905C222.539 147.383 222.539 147.383 221.875 145.83C222.164 145.789 222.454 145.748 222.752 145.706C224.466 145.295 225.978 144.589 227.575 143.853C231.25 142.162 231.25 142.162 233.276 141.877C233.276 141.587 233.276 141.297 233.276 140.998C233.499 140.896 233.723 140.793 233.954 140.688C238.272 138.517 242.122 135.008 244.676 130.896Z" fill="#E99588"/>
<path d="M242.647 39.0107C243.075 39.0045 243.504 38.9982 243.945 38.9918C245.113 39.093 245.113 39.093 246.429 39.9715C245.271 39.8266 244.114 39.6816 242.921 39.5323C242.921 42.2864 242.921 45.0404 242.921 47.878C245.236 47.733 247.551 47.5881 249.937 47.4387C250.081 46.2791 250.226 45.1195 250.375 43.9248C251.617 45.868 251.407 47.8428 251.033 50.0468C250.96 50.3457 250.888 50.6447 250.814 50.9527C250.524 50.5179 250.235 50.083 249.937 49.635C249.047 49.4528 249.047 49.4528 248.029 49.5063C247.524 49.5112 247.524 49.5112 247.01 49.5163C246.583 49.5283 246.156 49.5403 245.716 49.5526C244.36 49.5798 243.003 49.607 241.605 49.635C241.605 46.446 241.605 43.2571 241.605 39.9715C241.027 39.8266 240.448 39.6816 239.852 39.5323C240.61 38.7725 241.617 39.0175 242.647 39.0107Z" fill="white"/>
<path d="M237.22 110.69C237.509 110.69 237.799 110.69 238.097 110.69C238.72 113.67 239.074 116.43 238.974 119.475C239.263 119.475 239.553 119.475 239.851 119.475C239.996 117.156 240.14 114.837 240.289 112.447C243.359 112.447 243.359 112.447 244.208 113.106C244.362 113.324 244.516 113.541 244.674 113.765C243.661 113.62 242.648 113.475 241.605 113.326C241.615 113.808 241.625 114.289 241.636 114.786C241.644 115.425 241.652 116.064 241.66 116.703C241.667 117.019 241.674 117.336 241.682 117.662C241.698 119.478 241.645 120.958 240.728 122.55C240.294 122.695 239.86 122.84 239.412 122.989C238.637 120.548 237.943 118.091 237.33 115.604C237.214 115.14 237.099 114.675 236.98 114.196C236.779 112.871 236.87 111.973 237.22 110.69Z" fill="#403642"/>
<path d="M212.667 129.139C218.31 129.356 218.31 129.356 224.068 129.578C223.629 131.774 223.629 131.774 222.917 132.515C220.579 133.809 218.376 134.078 215.736 133.97C215.736 133.825 215.736 133.68 215.736 133.531C217.617 132.951 219.499 132.372 221.437 131.774C218.832 131.629 216.227 131.484 213.544 131.335C213.833 131.915 214.123 132.495 214.421 133.092C213.842 132.947 213.263 132.802 212.667 132.653C212.667 132.218 212.667 131.783 212.667 131.335C212.233 131.19 211.799 131.045 211.352 130.896C211.641 130.896 211.93 130.896 212.229 130.896C212.373 130.316 212.518 129.736 212.667 129.139Z" fill="#F0D4D1"/>
<path d="M63.1399 215.231C63.1399 215.521 63.1399 215.811 63.1399 216.11C62.6577 216.344 62.1756 216.578 61.6788 216.82C57.8911 218.714 54.7373 220.623 51.7411 223.633C50.8624 224.455 50.8624 224.455 49.9854 224.455C49.865 224.717 49.7446 224.98 49.6206 225.25C49.1304 226.171 48.6371 226.799 47.9301 227.557C46.1562 229.567 44.8011 231.836 43.4082 234.119C43.1188 233.829 42.8294 233.539 42.5312 233.24C46.7242 226.579 51.7412 220.753 58.7551 216.988C59.0931 216.806 59.4311 216.625 59.7793 216.437C62.1036 215.231 62.1036 215.231 63.1399 215.231Z" fill="#334180"/>
<path d="M221.875 148.466C222.615 149.042 222.615 149.042 223.19 149.783C223.053 150.662 223.053 150.662 222.752 151.54C222.752 151.975 222.752 152.41 222.752 152.858C222.341 153.764 222.341 153.764 221.875 154.615C221.73 154.905 221.586 155.195 221.437 155.494C221.002 155.349 220.568 155.204 220.121 155.054C219.609 154.001 219.609 154.001 219.162 152.693C219.011 152.264 218.86 151.835 218.705 151.393C218.367 150.223 218.367 150.223 218.367 148.905C220.888 147.971 220.888 147.971 221.875 148.466Z" fill="#2F364D"/>
<path d="M222.307 146.269C222.907 147.327 223.5 148.389 224.088 149.454C224.259 149.753 224.43 150.053 224.606 150.361C224.766 150.653 224.926 150.945 225.09 151.245C225.239 151.512 225.389 151.779 225.542 152.054C225.883 153.06 225.713 153.624 225.376 154.615C224.797 154.47 224.218 154.325 223.622 154.176C223.622 153.297 223.622 152.419 223.622 151.54C223.188 151.685 222.754 151.83 222.307 151.979C222.451 151.255 222.596 150.53 222.745 149.783C222.062 149.003 222.062 149.003 220.991 148.466C219.363 148.78 219.363 148.78 217.922 149.344C217.977 148.548 217.977 148.548 218.36 147.587C219.767 146.729 220.649 146.269 222.307 146.269Z" fill="#433C4B"/>
<path d="M321.845 265.744C316.901 267.972 310.255 270.564 304.744 270.137C304.455 269.847 304.165 269.557 303.867 269.258C304.313 269.179 304.758 269.099 305.217 269.017C309.98 268.151 314.71 267.258 319.241 265.504C320.25 265.268 320.872 265.422 321.845 265.744Z" fill="#E7B8AE"/>
<path d="M303.867 270.137C302.631 270.962 302.162 271.161 300.767 271.374C300.413 271.429 300.06 271.483 299.695 271.539C299.318 271.593 298.94 271.647 298.551 271.702C298.164 271.759 297.777 271.815 297.379 271.874C293.704 272.389 290.034 272.633 286.328 272.772C286.328 272.483 286.328 272.193 286.328 271.894C286.735 271.867 287.141 271.841 287.56 271.813C288.085 271.777 288.61 271.74 289.151 271.702C289.937 271.648 289.937 271.648 290.739 271.594C291.978 271.597 291.978 271.597 292.467 271.015C296.267 270.335 300.007 269.992 303.867 270.137Z" fill="#E4B7AD"/>
<path d="M228.885 274.969C228.885 275.114 228.885 275.259 228.885 275.408C225.568 275.821 222.304 275.901 218.964 275.875C218.482 275.873 218 275.871 217.503 275.869C216.328 275.864 215.152 275.856 213.977 275.847C218.456 273.561 224.027 274.402 228.885 274.969Z" fill="#473C3D"/>
<path d="M225.38 114.643C227.443 114.954 227.443 114.954 228.01 115.522C228.093 117.032 228.093 117.032 228.01 118.597C227.721 118.887 227.432 119.177 227.133 119.475C225.583 119.24 225.583 119.24 224.941 118.597C224.883 117.801 224.883 117.801 224.886 116.84C224.885 116.523 224.884 116.206 224.883 115.879C224.941 115.083 224.941 115.083 225.38 114.643Z" fill="#403642"/>
<path d="M210.037 113.765C210.76 113.91 211.484 114.055 212.229 114.204C212.315 116.864 212.315 116.864 212.229 117.718C211.94 118.008 211.65 118.298 211.352 118.597C210.773 118.597 210.194 118.597 209.598 118.597C208.991 117.38 209.077 116.43 209.16 115.083C209.449 114.648 209.738 114.213 210.037 113.765Z" fill="#583E44"/>
<path d="M213.102 130.896C215.996 131.041 218.89 131.186 221.871 131.335C221.433 132.213 221.433 132.213 220.556 132.708C218.814 133.216 217.076 133.529 215.294 133.092C214.57 132.367 213.847 131.642 213.102 130.896Z" fill="#5A4E53"/>
<path d="M217.484 117.279C217.774 117.279 218.063 117.279 218.361 117.279C217.822 119.294 217.017 120.674 215.741 122.281C215.175 123.035 215.175 123.035 215.292 124.307C216.16 124.597 217.028 124.887 217.923 125.185C217.923 125.475 217.923 125.765 217.923 126.064C214.963 125.734 214.963 125.734 213.977 124.746C214.098 122.652 214.791 121.269 215.922 119.53C216.193 119.105 216.464 118.681 216.743 118.243C216.988 117.925 217.232 117.607 217.484 117.279Z" fill="#674240"/>
<path d="M207.398 110.251C209.135 110.251 210.871 110.251 212.66 110.251C212.009 110.903 212.009 110.903 211.345 111.569C211.2 112.004 211.055 112.438 210.906 112.887C211.169 112.941 211.431 112.995 211.701 113.051C212.66 113.326 212.66 113.326 213.976 114.204C213.831 114.929 213.686 115.654 213.537 116.4C213.392 115.821 213.248 115.241 213.099 114.644C212.809 114.644 212.52 114.644 212.222 114.644C212.077 114.354 211.932 114.064 211.783 113.765C210.895 113.479 210.895 113.479 210.029 113.326C210.029 113.036 210.029 112.746 210.029 112.447C209.595 112.302 209.161 112.157 208.714 112.008C207.974 111.349 207.974 111.349 207.398 110.69C207.398 110.545 207.398 110.4 207.398 110.251Z" fill="#F2B1AB"/>
<path d="M292.027 273.212C292.027 273.357 292.027 273.502 292.027 273.651C288.051 274.595 283.766 274.206 279.75 273.651C279.75 273.506 279.75 273.361 279.75 273.212C288.176 272.4 288.176 272.4 292.027 273.212Z" fill="#4D404A"/>
<path d="M265.289 249.01C265.788 249.012 265.788 249.012 266.296 249.015C266.812 249.02 266.812 249.02 267.34 249.026C267.689 249.028 268.039 249.03 268.399 249.032C269.261 249.037 270.123 249.045 270.985 249.053C270.985 249.198 270.985 249.343 270.985 249.492C267.512 249.71 267.512 249.71 263.969 249.932C263.969 250.366 263.969 250.801 263.969 251.249C260.496 251.467 260.496 251.467 256.953 251.689C257.098 251.399 257.243 251.109 257.392 250.81C259.273 250.81 261.154 250.81 263.092 250.81C263.092 250.52 263.092 250.23 263.092 249.932C262.802 249.787 262.513 249.642 262.215 249.492C263.402 249.096 264.073 249.001 265.289 249.01Z" fill="#D2CBE8"/>
<path d="M41.2154 235.876C41.5048 236.166 41.7942 236.456 42.0924 236.754C41.9494 237.115 41.8064 237.477 41.659 237.849C40.4978 240.82 39.4369 243.782 38.5845 246.857C37.7076 245.539 37.7076 245.539 37.8326 244.523C38.7048 241.503 39.8358 238.7 41.2154 235.876Z" fill="#585C69"/>
<path d="M207.398 108.494C209.135 108.494 210.871 108.494 212.66 108.494C212.66 109.074 212.66 109.654 212.66 110.251C210.924 110.251 209.187 110.251 207.398 110.251C207.398 109.671 207.398 109.091 207.398 108.494Z" fill="#946C6C"/>
<path d="M26.3125 235.876C27.6696 236.467 28.4555 237.077 29.3733 238.235C29.6031 238.523 29.8328 238.812 30.0696 239.109C30.3039 239.41 30.5381 239.711 30.7795 240.021C31.1386 240.47 31.1386 240.47 31.5049 240.928C33.2683 243.163 33.2683 243.163 33.7667 244.661C33.3326 244.661 32.8985 244.661 32.4512 244.661C31.8706 243.935 31.8706 243.935 31.2728 242.931C30.0261 240.943 28.5918 239.272 26.9874 237.566C26.3125 236.754 26.3125 236.754 26.3125 235.876Z" fill="#484958"/>
<path d="M263.969 149.783C265.258 149.981 266.545 150.183 267.833 150.387C268.381 150.47 268.381 150.47 268.94 150.555C269.292 150.612 269.644 150.669 270.006 150.727C270.33 150.778 270.654 150.828 270.988 150.88C271.861 151.101 271.861 151.101 273.177 151.979C271.094 152.474 271.094 152.474 270.107 151.979C270.107 152.269 270.107 152.559 270.107 152.858C269.673 152.713 269.239 152.568 268.792 152.419C268.792 152.274 268.792 152.129 268.792 151.979C268.517 151.931 268.243 151.883 267.96 151.834C267.422 151.729 267.422 151.729 266.874 151.623C266.518 151.556 266.162 151.49 265.795 151.422C264.846 151.101 264.846 151.101 263.969 149.783Z" fill="#CBD3F0"/>
<path d="M244.672 130.896C245.11 132.213 245.11 132.213 244.672 133.531C243.962 134.284 243.226 135.012 242.48 135.727C242.227 136.005 241.974 136.282 241.714 136.568C241.451 136.852 241.188 137.137 240.917 137.429C240.673 137.7 240.428 137.971 240.176 138.25C239.41 138.802 239.41 138.802 238.439 138.668C238.181 138.567 237.922 138.467 237.656 138.363C237.942 138.118 238.228 137.874 238.523 137.622C240.888 135.553 242.922 133.511 244.672 130.896Z" fill="#E99C8E"/>
<path d="M179.338 223.138C179.338 223.572 179.338 224.007 179.338 224.455C178.904 224.745 178.47 225.035 178.022 225.334C178.167 225.914 178.312 226.493 178.461 227.091C176.583 225.986 175.547 225.28 174.953 223.138C176.393 222.417 177.771 222.91 179.338 223.138Z" fill="#FBF9F9"/>
<path d="M265.284 273.212C265.429 273.357 265.574 273.502 265.723 273.651C266.607 273.754 267.494 273.833 268.381 273.898C268.865 273.935 269.35 273.972 269.849 274.01C270.224 274.036 270.598 274.063 270.985 274.09C270.985 274.235 270.985 274.38 270.985 274.529C266.286 274.586 261.639 274.44 256.953 274.09C256.953 273.945 256.953 273.8 256.953 273.651C257.848 273.576 258.744 273.504 259.639 273.431C260.387 273.37 260.387 273.37 261.15 273.308C262.536 273.219 263.896 273.162 265.284 273.212Z" fill="#D7A09B"/>
<path d="M306.064 270.137C305.774 270.717 305.485 271.297 305.187 271.894C303.016 271.894 300.846 271.894 298.609 271.894C298.754 271.604 298.899 271.314 299.048 271.015C300.069 270.738 300.069 270.738 301.35 270.521C301.768 270.448 302.186 270.374 302.617 270.298C303.784 270.148 304.889 270.107 306.064 270.137Z" fill="#FDF3EF"/>
<path d="M238.534 115.522C238.679 115.522 238.823 115.522 238.973 115.522C239.117 117.406 239.262 119.291 239.411 121.232C239.7 121.232 239.99 121.232 240.288 121.232C240.433 120.797 240.577 120.362 240.726 119.914C240.871 120.639 241.016 121.364 241.165 122.111C240.297 122.546 240.297 122.546 239.411 122.989C238.461 120.317 237.868 118.313 238.534 115.522Z" fill="#4C3B43"/>
<path d="M222.312 109.373C224.338 109.373 226.364 109.373 228.451 109.373C228.596 109.807 228.741 110.242 228.89 110.69C226.719 110.545 224.549 110.4 222.312 110.251C222.312 109.961 222.312 109.671 222.312 109.373Z" fill="#684447"/>
<path d="M46.9161 227.091C47.2055 227.236 47.4949 227.381 47.793 227.53C47.5867 227.822 47.3804 228.113 47.1678 228.414C46.8948 228.802 46.6218 229.189 46.3406 229.589C46.0709 229.971 45.8013 230.353 45.5235 230.747C44.7737 231.849 44.0807 232.968 43.4082 234.119C43.1188 233.829 42.8294 233.539 42.5312 233.24C43.0964 232.379 43.663 231.519 44.2304 230.66C44.7035 229.941 44.7035 229.941 45.1861 229.208C46.0391 227.969 46.0391 227.969 46.9161 227.091Z" fill="#38406E"/>
<path d="M320.095 212.596C320.095 212.886 320.095 213.175 320.095 213.474C319.227 213.474 318.358 213.474 317.464 213.474C317.464 213.764 317.464 214.054 317.464 214.353C316.192 215.202 315.755 215.364 314.312 215.506C313.761 215.56 313.209 215.614 312.641 215.67C313.206 214.538 313.605 214.529 314.778 214.133C319.408 212.558 319.408 212.558 320.095 212.596Z" fill="#E9B2AB"/>
<path d="M184.161 265.305C184.596 265.305 185.03 265.305 185.477 265.305C185.622 266.465 185.766 267.625 185.915 268.819C185.481 269.109 185.047 269.399 184.6 269.698C183.895 268.286 184.136 266.871 184.161 265.305Z" fill="#F7ABA9"/>
<path d="M206.961 110.251C207.395 110.468 207.395 110.468 207.838 110.69C207.838 110.98 207.838 111.27 207.838 111.569C208.272 111.714 208.706 111.859 209.153 112.008C209.009 112.733 208.864 113.458 208.715 114.204C208.136 114.059 207.557 113.914 206.961 113.765C206.961 112.605 206.961 111.446 206.961 110.251Z" fill="#F3AD9A"/>
<path d="M240.291 210.399C240.58 210.544 240.87 210.689 241.168 210.839C241.106 211.47 241.041 212.102 240.976 212.733C240.941 213.085 240.905 213.436 240.868 213.798C240.73 214.792 240.73 214.792 240.291 216.11C240.002 216.11 239.712 216.11 239.414 216.11C239.642 214.186 239.877 212.293 240.291 210.399Z" fill="#CDD0F0"/>
<path d="M252.565 110.69C252.855 110.98 253.144 111.27 253.442 111.569C253.428 112.767 253.195 113.895 253.004 115.083C252.859 114.793 252.715 114.503 252.565 114.204C252.131 114.204 251.697 114.204 251.25 114.204C251.525 112.918 251.946 111.85 252.565 110.69Z" fill="#3F4252"/>
<path d="M177.587 273.651C177.876 273.941 178.166 274.231 178.464 274.53C176.582 275.084 175.448 274.806 173.641 274.09C174.599 272.17 176.018 272.885 177.587 273.651Z" fill="#3C4053"/>
<path d="M209.594 114.643C210.317 114.643 211.041 114.643 211.786 114.643C211.641 115.513 211.497 116.383 211.348 117.279C210.769 117.279 210.19 117.279 209.594 117.279C209.594 116.409 209.594 115.54 209.594 114.643Z" fill="#343544"/>
<path d="M41.2188 235.876C41.5082 236.166 41.7976 236.456 42.0958 236.754C41.3723 238.349 40.6488 239.943 39.9034 241.586C39.427 239.677 39.5058 239.412 40.3145 237.743C40.4812 237.391 40.648 237.04 40.8198 236.679C40.9515 236.414 41.0832 236.149 41.2188 235.876Z" fill="#494E61"/>
<path d="M221.875 145.83C223.958 146.214 223.958 146.214 224.944 146.709C224.944 147.143 224.944 147.578 224.944 148.026C224.076 148.461 224.076 148.461 223.19 148.905C222.756 147.89 222.322 146.875 221.875 145.83Z" fill="#D8948C"/>
<path d="M203.457 105.419C203.746 106.724 204.036 108.028 204.334 109.373C202.196 107.341 202.196 107.341 201.703 105.859C202.58 105.419 202.58 105.419 203.457 105.419Z" fill="#483C44"/>
<path d="M244.67 130.896C245.108 132.213 245.108 132.213 244.67 133.531C243.847 134.342 242.948 135.011 242.039 135.727C242.039 134.144 242.397 133.789 243.355 132.57C243.599 132.256 243.843 131.942 244.094 131.618C244.284 131.38 244.474 131.141 244.67 130.896Z" fill="#EEA395"/>
<path d="M210.47 104.541C211.539 104.623 211.539 104.623 212.662 104.98C213.238 105.886 213.238 105.886 213.539 106.737C212.816 106.737 212.092 106.737 211.347 106.737C211.347 106.302 211.347 105.867 211.347 105.419C210.913 105.274 210.479 105.129 210.031 104.98C210.176 104.835 210.321 104.69 210.47 104.541Z" fill="#443342"/>
<path d="M15.7891 227.53C17.9783 228.091 19.1111 228.924 20.6124 230.605C18.811 229.968 17.3375 229.088 15.7891 227.969C15.7891 227.824 15.7891 227.679 15.7891 227.53Z" fill="#27AE60"/>
<path d="M246.43 144.952C246.43 145.241 246.43 145.531 246.43 145.83C246.14 145.83 245.851 145.83 245.553 145.83C245.263 146.41 244.974 146.99 244.676 147.587C244.386 147.587 244.097 147.587 243.799 147.587C243.799 147.297 243.799 147.007 243.799 146.709C243.509 146.564 243.22 146.419 242.922 146.269C245.443 144.952 245.443 144.952 246.43 144.952Z" fill="#423C47"/>
<path d="M217.489 103.662C217.923 103.662 218.357 103.662 218.805 103.662C218.805 104.242 218.805 104.822 218.805 105.419C217.544 105.474 217.544 105.474 216.174 105.419C215.884 105.129 215.595 104.84 215.297 104.541C216.02 104.541 216.744 104.541 217.489 104.541C217.489 104.251 217.489 103.961 217.489 103.662Z" fill="#343341"/>
<path d="M238.537 40.4108C238.827 40.5557 239.116 40.7007 239.414 40.85C238.401 41.8647 237.388 42.8793 236.345 43.9247C236.2 43.4899 236.055 43.055 235.906 42.607C236.774 41.8822 237.643 41.1575 238.537 40.4108Z" fill="#EFF3FD"/>
<path d="M206.086 105.419C207.388 105.564 208.691 105.709 210.032 105.859C209.888 106.148 209.743 106.438 209.594 106.737C208.436 106.592 207.279 106.447 206.086 106.298C206.086 106.008 206.086 105.718 206.086 105.419Z" fill="#513E47"/>
<path d="M237.22 80.3822C238.088 80.6721 238.956 80.962 239.851 81.2607C239.417 81.913 239.417 81.913 238.974 82.5784C238.25 82.4335 237.527 82.2885 236.781 82.1392C236.926 81.5594 237.071 80.9796 237.22 80.3822Z" fill="#3C414F"/>
<path d="M251.251 93.1204C251.541 93.1204 251.83 93.1204 252.128 93.1204C252.273 93.8451 252.417 94.5699 252.567 95.3166C252.132 95.6065 251.698 95.8964 251.251 96.1951C250.813 95.7558 250.813 95.7558 250.758 94.6577C250.813 93.5596 250.813 93.5596 251.251 93.1204Z" fill="#303145"/>
<path d="M232.398 162.082C234.92 162.412 234.92 162.412 235.906 163.4C234.318 163.93 233.871 163.639 232.398 162.961C232.398 162.671 232.398 162.381 232.398 162.082Z" fill="#CCD1F1"/>
</svg>
