<svg width="17" height="22" viewBox="0 0 17 22" fill="none" xmlns="http://www.w3.org/2000/svg">
<path d="M16.3944 7.66471C15.0448 8.52941 14.2112 10.0118 14.2112 11.6588C14.2112 13.5118 15.2829 15.2 16.9104 15.9C16.5928 16.9706 16.1165 17.9588 15.5211 18.8647C14.6478 20.1412 13.7349 21.4588 12.3853 21.4588C11.0357 21.4588 10.6388 20.6353 9.05102 20.6353C7.50297 20.6353 6.94726 21.5 5.67706 21.5C4.40687 21.5 3.53361 20.3059 2.54126 18.8235C1.23137 16.7647 0.477194 14.3765 0.4375 11.8647C0.4375 7.78824 2.97789 5.60588 5.51829 5.60588C6.86787 5.60588 7.97929 6.51177 8.81286 6.51177C9.60674 6.51177 10.8769 5.56471 12.3853 5.56471C13.973 5.52353 15.4814 6.30588 16.3944 7.66471ZM11.6708 3.83529C12.3456 3.01177 12.7028 1.98235 12.7425 0.911765C12.7425 0.788235 12.7425 0.623529 12.7028 0.5C11.5517 0.623529 10.48 1.2 9.72582 2.10588C9.05102 2.88824 8.65409 3.87647 8.61439 4.94706C8.61439 5.07059 8.61439 5.19412 8.65409 5.31765C8.73347 5.31765 8.85256 5.35882 8.93194 5.35882C10.0037 5.27647 10.996 4.7 11.6708 3.83529Z" fill="#070707"/>
</svg>
