<svg width="21" height="22" viewBox="0 0 21 22" fill="none" xmlns="http://www.w3.org/2000/svg">
<path d="M20.0253 11.2387C20.0253 10.4941 19.9605 9.77822 19.8403 9.09094H10.2578V13.1525H15.7335C15.4976 14.465 14.7808 15.5771 13.7032 16.3216V18.9562H16.9914C18.9153 17.1282 20.0253 14.4364 20.0253 11.2387Z" fill="#4285F4"/>
<path d="M10.2641 21.5C13.0112 21.5 15.3143 20.5598 16.9977 18.9561L13.7095 16.3216C12.7985 16.9516 11.633 17.3239 10.2641 17.3239C7.61413 17.3239 5.37113 15.4768 4.57106 12.995H1.17188V15.7155C2.84603 19.147 6.28683 21.5 10.2641 21.5Z" fill="#34A853"/>
<path d="M4.56731 12.995C4.36382 12.365 4.2482 11.692 4.2482 11C4.2482 10.308 4.36382 9.635 4.56731 9.005V6.28455H1.16813C0.455916 7.74773 0.0853098 9.36258 0.0859383 11C0.0859383 12.6943 0.479041 14.298 1.16813 15.7155L4.56731 12.995Z" fill="#FBBC05"/>
<path d="M10.2641 4.67614C11.7579 4.67614 13.0991 5.20591 14.1535 6.24636L17.0717 3.23477C15.3097 1.54045 13.0066 0.5 10.2641 0.5C6.28683 0.5 2.84603 2.85295 1.17188 6.28455L4.57106 9.005C5.37113 6.52318 7.61413 4.67614 10.2641 4.67614Z" fill="#EA4335"/>
</svg>
