<svg width="40" height="41" viewBox="0 0 40 41" fill="none" xmlns="http://www.w3.org/2000/svg">
<path fill-rule="evenodd" clip-rule="evenodd" d="M16.4601 22.1398H23.5371C24.0082 22.1398 24.3934 22.5249 24.3934 22.9961V32.5829C24.3934 33.0541 24.0082 33.4392 23.5371 33.4392H16.4601C15.9889 33.4392 15.6016 33.0541 15.6016 32.5829V22.9961C15.6016 22.5249 15.9889 22.1398 16.4601 22.1398Z" fill="#FFD18D"/>
<path fill-rule="evenodd" clip-rule="evenodd" d="M24.3927 24.0223V25.0774C23.0941 25.8289 21.5902 26.2589 19.9968 26.2589C19.2842 26.2589 18.5876 26.1729 17.922 26.0089C17.2846 25.8535 16.6769 26.3304 16.6769 26.9881V27.7317H15.6016V24.0223C16.8655 24.8685 18.3795 25.3621 19.9975 25.3621C21.6191 25.3621 23.1331 24.8685 24.3927 24.0223Z" fill="#E6BC7F"/>
<path fill-rule="evenodd" clip-rule="evenodd" d="M26.381 28.7065L32.7599 30.8882C34.0911 31.3427 34.9452 32.5395 34.9452 33.9465V37.7216C34.9452 38.4241 34.3715 39 33.6669 39H6.33307C5.63065 39 5.05469 38.4241 5.05469 37.7216V33.9465C5.05469 32.5395 5.91104 31.3427 7.24217 30.8882L13.6189 28.7065L20.1084 29.3562L26.381 28.7065Z" fill="#4E3D4D"/>
<path fill-rule="evenodd" clip-rule="evenodd" d="M26.3774 28.7065L26.4309 33.8128C26.4352 34.1177 26.2423 34.3779 25.9496 34.4639L25.292 34.6561C24.8923 34.7746 24.6958 35.2176 24.8764 35.592L24.9726 35.7929C25.1323 36.1246 24.995 36.5242 24.6654 36.6861L19.9963 39L15.3301 36.6875C15.0006 36.5256 14.8633 36.126 15.023 35.7943L15.1191 35.5934C15.1616 35.5057 15.1844 35.4097 15.186 35.3123C15.1876 35.2148 15.1679 35.1182 15.1284 35.0291C15.0888 34.9401 15.0303 34.8607 14.957 34.7965C14.8836 34.7323 14.7971 34.6849 14.7036 34.6576L14.046 34.4653C13.7533 34.3793 13.5604 34.1192 13.5625 33.8142L13.616 28.7079L19.9971 29.2962L26.3774 28.7065Z" fill="#292129"/>
<path fill-rule="evenodd" clip-rule="evenodd" d="M19.9983 39L26.3793 28.7065L19.9983 29.2947L13.6172 28.7065L19.9983 39Z" fill="#1BADDE"/>
<path fill-rule="evenodd" clip-rule="evenodd" d="M18.9681 2H21.0306C25.5992 2 29.3354 5.73614 29.3354 10.3041V13.8682C29.3354 16.4756 27.2028 18.6081 24.5955 18.6081H15.404C12.7966 18.6081 10.6641 16.4756 10.6641 13.8682V10.3041C10.6641 5.73614 14.4002 2 18.9681 2Z" fill="#4E3D4D"/>
<path fill-rule="evenodd" clip-rule="evenodd" d="M11.3815 14.6553H12.0391C12.6599 14.6553 13.1 14.1451 13.1657 13.5287V11.7647C13.1657 11.3058 13.6102 10.9842 14.0466 11.1258C16.1322 11.8059 19.5323 12.0537 22.3854 8.66158C22.639 8.36023 23.09 8.33783 23.3704 8.61677C24.0995 9.33582 25.3982 10.1922 26.3853 10.5296C26.6621 10.6236 26.8399 10.8736 26.8399 11.1649V13.5287C26.8399 14.1494 27.3457 14.6553 27.9665 14.6553H28.6263C29.513 14.6553 30.2407 15.3823 30.2407 16.2712C30.2407 17.16 29.5137 17.887 28.6263 17.887H27.9173C27.6832 22.0394 24.213 25.3622 20.0035 25.3622C15.8208 25.3622 12.326 22.064 12.0904 17.8877H11.3815C10.4926 17.8877 9.76562 17.1608 9.76562 16.2719C9.76562 15.3823 10.4926 14.6553 11.3815 14.6553Z" fill="#FFD18D"/>
<path fill-rule="evenodd" clip-rule="evenodd" d="M19.9994 39.0001L18.1848 36.0712L18.7977 33.0931C18.6033 32.9536 18.4595 32.7426 18.3944 32.4911L17.5547 29.2731L19.9994 29.2948L22.4449 29.2724L21.6052 32.4904C21.5394 32.7426 21.3963 32.9536 21.2019 33.0924L21.8162 36.0704L19.9994 39.0001Z" fill="#736572"/>
<path d="M17.4592 20.149C17.1825 19.9705 17.1051 19.602 17.2829 19.3252C17.4629 19.0506 17.8321 18.9725 18.106 19.151C18.7557 19.5709 19.3902 19.8108 20.0131 19.8253C20.6194 19.8397 21.2337 19.6366 21.8609 19.172C22.1254 18.9776 22.4983 19.0325 22.6949 19.297C22.8893 19.5615 22.8344 19.9344 22.5699 20.1288C21.72 20.7618 20.8572 21.0364 19.9849 21.0155C19.1307 20.9952 18.2889 20.6874 17.4592 20.149Z" fill="#E29A6C"/>
<path d="M24.3003 12.5942C24.6298 12.5942 24.8986 12.8623 24.8986 13.1925C24.8986 13.5228 24.6305 13.7909 24.3003 13.7909H22.8174C22.4878 13.7909 22.219 13.5228 22.219 13.1925C22.219 12.8623 22.4871 12.5942 22.8174 12.5942H24.3003ZM17.1828 12.5942C17.5123 12.5942 17.779 12.8623 17.779 13.1925C17.779 13.5228 17.5131 13.7909 17.1828 13.7909H15.6978C15.3682 13.7909 15.1016 13.5228 15.1016 13.1925C15.1016 12.8623 15.3675 12.5942 15.6978 12.5942H17.1828ZM15.843 15.1343C15.843 14.8048 16.1089 14.5381 16.4392 14.5381C16.7687 14.5381 17.0376 14.8041 17.0376 15.1343V15.9415C17.0376 16.2711 16.7695 16.5377 16.4392 16.5377C16.1097 16.5377 15.843 16.2718 15.843 15.9415V15.1343ZM22.9634 15.1343C22.9634 14.8048 23.2293 14.5381 23.5595 14.5381C23.8891 14.5381 24.1579 14.8041 24.1579 15.1343V15.9415C24.1579 16.2711 23.8898 16.5377 23.5595 16.5377C23.23 16.5377 22.9634 16.2718 22.9634 15.9415V15.1343Z" fill="#4E3D4D"/>
<path d="M27.5359 37.4659C27.2063 37.4659 26.9375 37.1993 26.9375 36.8697C26.9375 36.5402 27.2056 36.2714 27.5359 36.2714H30.7539C31.0834 36.2714 31.3522 36.5395 31.3522 36.8697C31.3522 37.1993 31.0841 37.4659 30.7539 37.4659H27.5359Z" fill="#3F323E"/>
<path fill-rule="evenodd" clip-rule="evenodd" d="M13.6172 28.7065L15.5814 32.0351C15.8068 32.4181 16.2925 32.4983 16.6198 32.215L19.9983 29.2948L15.5611 26.6874C15.1492 26.4453 14.6332 26.6094 14.4201 27.0524L13.6172 28.7065ZM26.3793 28.7065L24.4173 32.0351C24.1918 32.4181 23.7062 32.4983 23.3788 32.215L19.9983 29.2948L24.4354 26.6874C24.8495 26.4453 25.3633 26.6094 25.5786 27.0524L26.3793 28.7065Z" fill="#DBD8DB"/>
<path fill-rule="evenodd" clip-rule="evenodd" d="M13.1608 11.7646C13.1608 11.3057 13.6053 10.9841 14.0418 11.1257C14.1812 11.1705 14.3243 11.2139 14.4739 11.2551V3.32971C12.186 4.8126 10.6641 7.3896 10.6641 10.3048V13.8689C10.6641 14.1804 10.6951 14.4875 10.7522 14.7824C10.9445 14.7007 11.1555 14.6552 11.3773 14.6552H12.0349C12.6557 14.6552 13.0958 14.145 13.1616 13.5286V11.7646H13.1608Z" fill="#463745"/>
<path fill-rule="evenodd" clip-rule="evenodd" d="M13.1586 13.5283C13.0929 14.1447 12.6528 14.6549 12.032 14.6549H11.3744C11.1533 14.6549 10.9422 14.6997 10.7493 14.7821C10.1697 15.0278 9.75781 15.6038 9.75781 16.2715C9.75781 17.1604 10.4848 17.8874 11.3737 17.8874H12.0826C12.2279 20.4478 13.5987 22.6808 15.5998 24.022C16.8637 24.8697 18.3777 25.3618 19.9957 25.3618C20.0636 25.3618 20.1308 25.3618 20.1966 25.3597C18.3162 25.304 16.6469 24.3581 15.6041 22.9279C14.893 21.9531 14.4717 20.7549 14.4717 19.4642V11.2541C14.3221 11.2129 14.179 11.1703 14.0396 11.1248C13.6031 10.9831 13.1586 11.3047 13.1586 11.7636V13.5283Z" fill="#E6BC7F"/>
<path fill-rule="evenodd" clip-rule="evenodd" d="M6.58744 34.6922C6.58744 33.2852 7.44163 32.0906 8.77276 31.6339L13.6066 29.9812L13.6189 28.7072L7.24217 30.8889C5.91104 31.3434 5.05469 32.5401 5.05469 33.9471V37.7223C5.05469 38.4247 5.62992 39.0007 6.33307 39.0007H6.70162C6.62578 38.8334 6.5866 38.6518 6.58672 38.4681V34.6922H6.58744Z" fill="#463745"/>
</svg>
