<svg width="51" height="51" viewBox="0 0 51 51" fill="none" xmlns="http://www.w3.org/2000/svg">
<path d="M25.5 2.125C20.8769 2.125 16.3576 3.49592 12.5136 6.0644C8.66956 8.63288 5.67352 12.2836 3.90433 16.5548C2.13513 20.826 1.67223 25.5259 2.57415 30.0602C3.47608 34.5945 5.70234 38.7596 8.97139 42.0286C12.2404 45.2977 16.4055 47.5239 20.9398 48.4259C25.4741 49.3278 30.174 48.8649 34.4452 47.0957C38.7165 45.3265 42.3671 42.3305 44.9356 38.4865C47.5041 34.6425 48.875 30.1231 48.875 25.5C48.875 19.3006 46.4123 13.355 42.0286 8.97138C37.645 4.58772 31.6994 2.125 25.5 2.125ZM25.5 42.5C22.1377 42.5 18.851 41.503 16.0553 39.635C13.2597 37.767 11.0807 35.112 9.79406 32.0056C8.50737 28.8993 8.17071 25.4811 8.82666 22.1835C9.48261 18.8858 11.1017 15.8567 13.4792 13.4792C15.8567 11.1017 18.8858 9.4826 22.1835 8.82665C25.4812 8.1707 28.8993 8.50736 32.0056 9.79405C35.112 11.0807 37.767 13.2597 39.635 16.0553C41.503 18.8509 42.5 22.1377 42.5 25.5C42.5 30.0087 40.7089 34.3327 37.5208 37.5208C34.3327 40.7089 30.0087 42.5 25.5 42.5Z" fill="#C6E6D1"/>
<path d="M25.4971 8.49999C29.5255 8.50184 33.4224 9.9342 36.4931 12.5418C39.5638 15.1493 41.6087 18.7626 42.2633 22.7375C42.3789 23.4981 42.7605 24.1932 43.3402 24.699C43.92 25.2048 44.6603 25.4886 45.4296 25.5C45.8933 25.5003 46.3515 25.3994 46.7722 25.2044C47.1929 25.0094 47.566 24.7249 47.8655 24.3708C48.1649 24.0167 48.3835 23.6016 48.506 23.1543C48.6285 22.7071 48.6519 22.2385 48.5746 21.7812C47.6911 16.2969 44.8834 11.3064 40.6545 7.70424C36.4256 4.10208 31.0522 2.12372 25.4971 2.12372C19.942 2.12372 14.5685 4.10208 10.3397 7.70424C6.11081 11.3064 3.30304 16.2969 2.41958 21.7812C2.3423 22.2385 2.3657 22.7071 2.48818 23.1543C2.61065 23.6016 2.82923 24.0167 3.12868 24.3708C3.42813 24.7249 3.80122 25.0094 4.22194 25.2044C4.64266 25.3994 5.10086 25.5003 5.56458 25.5C6.33388 25.4886 7.07421 25.2048 7.65394 24.699C8.23368 24.1932 8.61526 23.4981 8.73083 22.7375C9.38546 18.7626 11.4304 15.1493 14.5011 12.5418C17.5717 9.9342 21.4686 8.50184 25.4971 8.49999Z" fill="#27AE60"/>
</svg>
