<svg width="39" height="39" viewBox="0 0 39 39" fill="none" xmlns="http://www.w3.org/2000/svg">
<path d="M27.625 32.625H11.375V21.375C11.375 20.712 11.6384 20.0761 12.1072 19.6072C12.5761 19.1384 13.212 18.875 13.875 18.875H25.125C25.788 18.875 26.4239 19.1384 26.8928 19.6072C27.3616 20.0761 27.625 20.712 27.625 21.375V32.625Z" fill="#395D7B"/>
<path d="M15.75 18.875H23.25V25.75H15.75V18.875Z" fill="#FDB683"/>
<path d="M27.625 37.625H11.375V21.375H15.75L15.7621 21.4357C15.935 22.2998 16.4018 23.0773 17.0833 23.636C17.7648 24.1947 18.6188 24.5 19.5 24.5C20.3812 24.5 21.2352 24.1947 21.9167 23.636C22.5982 23.0773 23.065 22.2998 23.2379 21.4357L23.25 21.375H27.625V37.625Z" fill="white"/>
<path d="M27.625 37.625H11.375V21.375H15.75L15.7621 21.4357C15.935 22.2998 16.4018 23.0773 17.0833 23.636C17.7648 24.1947 18.6188 24.5 19.5 24.5C20.3812 24.5 21.2352 24.1947 21.9167 23.636C22.5982 23.0773 23.065 22.2998 23.2379 21.4357L23.25 21.375H27.625V37.625Z" fill="#DE5540"/>
<path d="M11.375 21.375H15.125V37.625H11.375V21.375Z" fill="#426887"/>
<path d="M11.375 26.375V21.375C10.5988 21.375 9.83321 21.5557 9.13893 21.9029C8.44465 22.25 7.84074 22.754 7.375 23.375L2.3125 30.125C1.70396 30.9364 1.375 31.9233 1.375 32.9375C1.375 34.1807 1.86886 35.373 2.74794 36.2521C3.62701 37.1311 4.8193 37.625 6.0625 37.625H9.5V32.625H6.375L11.375 26.375Z" fill="#DE5540"/>
<path d="M27.625 37.625H23.875V21.375H27.625V37.625Z" fill="#426887"/>
<path d="M14.5 37.625H9.5V32.625L9.72969 31.9359C9.84481 31.5905 10.0657 31.2902 10.3609 31.0774C10.6562 30.8645 11.011 30.75 11.375 30.75V32.625H14.5C14.8315 32.625 15.1495 32.7567 15.3839 32.9911C15.6183 33.2255 15.75 33.5435 15.75 33.875V36.375C15.75 36.7065 15.6183 37.0245 15.3839 37.2589C15.1495 37.4933 14.8315 37.625 14.5 37.625ZM24.5 37.625H29.5V32.625L29.2703 31.9359C29.1552 31.5905 28.9343 31.2902 28.6391 31.0774C28.3438 30.8645 27.989 30.75 27.625 30.75V32.625H24.5C24.1685 32.625 23.8505 32.7567 23.6161 32.9911C23.3817 33.2255 23.25 33.5435 23.25 33.875V36.375C23.25 36.7065 23.3817 37.0245 23.6161 37.2589C23.8505 37.4933 24.1685 37.625 24.5 37.625Z" fill="#FDC8A2"/>
<path d="M27.625 26.375V21.375C28.4012 21.375 29.1668 21.5557 29.8611 21.9029C30.5553 22.25 31.1593 22.754 31.625 23.375L36.6875 30.125C37.296 30.9364 37.625 31.9233 37.625 32.9375C37.625 34.1807 37.1311 35.373 36.2521 36.2521C35.373 37.1311 34.1807 37.625 32.9375 37.625H29.5V32.625H32.625L27.625 26.375Z" fill="#DE5540"/>
<path d="M16.375 3.875H22.625C23.6196 3.875 24.5734 4.27009 25.2767 4.97335C25.9799 5.67661 26.375 6.63044 26.375 7.625V14.5C26.375 16.3234 25.6507 18.072 24.3614 19.3614C23.072 20.6507 21.3234 21.375 19.5 21.375C17.6766 21.375 15.928 20.6507 14.6386 19.3614C13.3493 18.072 12.625 16.3234 12.625 14.5V7.625C12.625 6.63044 13.0201 5.67661 13.7233 4.97335C14.4266 4.27009 15.3804 3.875 16.375 3.875Z" fill="#FDC8A2"/>
<path d="M12.625 11.375L13.1548 11.163C14.8266 10.4944 16.1948 9.23543 17 7.625V3.25H16.375C15.3804 3.25 14.4266 3.64509 13.7233 4.34835C13.0201 5.05161 12.625 6.00544 12.625 7V11.375ZM26.375 7V11.375C25.3876 10.9799 24.4907 10.3884 23.7387 9.63633C22.9866 8.8843 22.3951 7.9874 22 7V3.25H22.625C23.6196 3.25 24.5734 3.64509 25.2767 4.34835C25.9799 5.05161 26.375 6.00544 26.375 7Z" fill="#784533"/>
<path d="M16.375 13.875C17.0654 13.875 17.625 13.3154 17.625 12.625C17.625 11.9346 17.0654 11.375 16.375 11.375C15.6846 11.375 15.125 11.9346 15.125 12.625C15.125 13.3154 15.6846 13.875 16.375 13.875Z" fill="#844E3A"/>
<path d="M22.625 13.875C23.3154 13.875 23.875 13.3154 23.875 12.625C23.875 11.9346 23.3154 11.375 22.625 11.375C21.9346 11.375 21.375 11.9346 21.375 12.625C21.375 13.3154 21.9346 13.875 22.625 13.875Z" fill="#844E3A"/>
<path d="M22 3.25V7C20.7841 7.81109 19.4552 8.43841 18.0563 8.86172C16.6576 9.28508 15.2043 9.50015 13.743 9.5H11.375V7.625C11.375 7.33069 11.3956 7.03674 11.4367 6.74531C11.5649 5.83833 11.8917 4.97081 12.3937 4.20469C12.9616 3.33515 13.7373 2.62099 14.6508 2.12689C15.5642 1.63279 16.5865 1.37436 17.625 1.375H19.3984C19.974 1.37498 20.535 1.55605 21.0019 1.89257C21.4688 2.22909 21.818 2.70399 22 3.25Z" fill="#844E3A"/>
<path d="M12 11.375H12.625V15.125H12C11.5027 15.125 11.0258 14.9275 10.6742 14.5758C10.3225 14.2242 10.125 13.7473 10.125 13.25C10.125 12.7527 10.3225 12.2758 10.6742 11.9242C11.0258 11.5725 11.5027 11.375 12 11.375ZM27 15.125H26.375V11.375H27C27.4973 11.375 27.9742 11.5725 28.3258 11.9242C28.6775 12.2758 28.875 12.7527 28.875 13.25C28.875 13.7473 28.6775 14.2242 28.3258 14.5758C27.9742 14.9275 27.4973 15.125 27 15.125Z" fill="#FDB683"/>
<path d="M21.8977 25.8147L22.4516 26.9353C21.5334 27.3878 20.5236 27.6237 19.5 27.625C18.5481 27.6264 17.607 27.4223 16.7412 27.0267L17.2588 25.889C17.9622 26.2103 18.7267 26.3761 19.5 26.375C20.3316 26.374 21.1518 26.1823 21.8977 25.8147ZM19.5 17.0045C20.3093 17.0009 21.0961 16.7378 21.7448 16.2538L21.0052 15.246C20.5714 15.5727 20.0431 15.7493 19.5 15.7493C18.9569 15.7493 18.4286 15.5727 17.9948 15.246L17.2552 16.2538C17.9039 16.7378 18.6907 17.0009 19.5 17.0045ZM16.375 13.875C16.6222 13.875 16.8639 13.8017 17.0695 13.6643C17.275 13.527 17.4352 13.3318 17.5299 13.1034C17.6245 12.8749 17.6492 12.6236 17.601 12.3811C17.5528 12.1387 17.4337 11.9159 17.2589 11.7411C17.0841 11.5663 16.8613 11.4473 16.6189 11.399C16.3764 11.3508 16.1251 11.3755 15.8966 11.4702C15.6682 11.5648 15.473 11.725 15.3357 11.9305C15.1983 12.1361 15.125 12.3778 15.125 12.625C15.1254 12.9564 15.2572 13.2741 15.4916 13.5085C15.7259 13.7428 16.0436 13.8746 16.375 13.875ZM22.625 13.875C22.8722 13.875 23.1139 13.8017 23.3195 13.6643C23.525 13.527 23.6852 13.3318 23.7799 13.1034C23.8745 12.8749 23.8992 12.6236 23.851 12.3811C23.8028 12.1387 23.6837 11.9159 23.5089 11.7411C23.3341 11.5663 23.1113 11.4473 22.8689 11.399C22.6264 11.3508 22.3751 11.3755 22.1467 11.4702C21.9182 11.5648 21.723 11.725 21.5857 11.9305C21.4483 12.1361 21.375 12.3778 21.375 12.625C21.3754 12.9564 21.5072 13.2741 21.7416 13.5085C21.9759 13.7428 22.2936 13.8746 22.625 13.875ZM37.4844 30.1903C37.9712 30.9961 38.2352 31.9169 38.2492 32.8582C38.2633 33.7996 38.0269 34.7278 37.5643 35.5478C37.1017 36.3678 36.4295 37.0501 35.6165 37.5249C34.8035 37.9997 33.879 38.25 32.9375 38.25H6.0625C5.07591 38.25 4.1088 37.9753 3.26956 37.4566C2.43031 36.9379 1.75208 36.1958 1.31086 35.3133C0.86964 34.4309 0.682867 33.443 0.771469 32.4604C0.86007 31.4778 1.22055 30.5393 1.8125 29.75L5.44063 24.9125L6.44063 25.6625L2.8125 30.5C2.35983 31.1036 2.08417 31.8213 2.01642 32.5727C1.94866 33.3241 2.09149 34.0795 2.42889 34.7543C2.76629 35.4291 3.28494 35.9966 3.92672 36.3933C4.5685 36.7899 5.30805 37 6.0625 37H8.875V33.25H6.375C6.25724 33.25 6.14186 33.2168 6.04217 33.1541C5.94248 33.0914 5.86252 33.0019 5.81151 32.8957C5.76051 32.7896 5.74053 32.6712 5.75387 32.5542C5.76722 32.4372 5.81335 32.3263 5.88696 32.2344L10.75 26.1557V22.0455C9.60475 22.2133 8.57178 22.8257 7.875 23.75L7.06883 24.825L6.06883 24.075L6.875 23C7.34277 22.3798 7.93328 21.8626 8.60972 21.4806C9.28616 21.0986 10.034 20.8601 10.8067 20.7798C10.9186 20.2042 11.19 19.6716 11.59 19.2429C11.99 18.8141 12.5026 18.5065 13.0691 18.3551C12.5871 17.5549 12.26 16.6711 12.1048 15.75H12C11.337 15.75 10.7011 15.4866 10.2322 15.0178C9.7634 14.5489 9.5 13.913 9.5 13.25C9.5 12.587 9.7634 11.9511 10.2322 11.4822C10.7011 11.0134 11.337 10.75 12 10.75V10.125H11.375C11.2092 10.125 11.0503 10.0592 10.9331 9.94194C10.8159 9.82473 10.75 9.66576 10.75 9.5V7.625C10.7492 6.62157 10.9685 5.63017 11.3923 4.72064C11.8162 3.81112 12.4343 3.00558 13.2031 2.36078L14.0078 3.3175C13.7201 3.5599 13.4573 3.83041 13.2233 4.125C14.7419 3.81446 16.2266 3.35656 17.6563 2.75781C17.6763 2.7489 17.6969 2.74107 17.7178 2.73438L17.9141 3.33985L18.1627 3.90016C18.1345 3.91266 15.4186 5.10617 12.4025 5.53297C12.2516 5.90973 12.142 6.30177 12.0756 6.70219C12.7789 6.6418 13.4777 6.53721 14.1679 6.38906C15.5382 6.09571 16.8671 5.63442 18.1245 5.01563C18.6282 4.77283 19.1129 4.49245 19.5745 4.17688L20.3125 5.18633C20.2207 5.2536 18.022 6.84211 14.4303 7.61109C13.8573 7.73406 13.2741 7.82984 12.6959 7.89594C12.4677 7.92258 12.235 7.94461 12 7.96258V8.875H13.7431C16.4459 8.87762 19.0933 8.10958 21.375 6.66094V3.35813C21.2219 2.9582 20.9509 2.61421 20.5979 2.37169C20.245 2.12917 19.8267 1.99955 19.3984 2H17.625C16.6379 1.99946 15.668 2.25889 14.813 2.75219L14.187 1.67016C15.2324 1.0669 16.4181 0.749537 17.625 0.750001H19.3984C20.0264 0.749469 20.642 0.924834 21.1754 1.25622C21.7088 1.58762 22.1388 2.06178 22.4165 2.625H22.625C23.7849 2.6263 24.897 3.08766 25.7172 3.90785C26.5373 4.72804 26.9987 5.84008 27 7V10.75C27.663 10.75 28.2989 11.0134 28.7678 11.4822C29.2366 11.9511 29.5 12.587 29.5 13.25C29.5 13.913 29.2366 14.5489 28.7678 15.0178C28.2989 15.4866 27.663 15.75 27 15.75H26.8952C26.74 16.6714 26.4127 17.5554 25.9306 18.3558C26.4965 18.508 27.0084 18.8158 27.4082 19.2442C27.808 19.6727 28.0797 20.2046 28.1924 20.7797C28.9653 20.8598 29.7133 21.0983 30.3899 21.4803C31.0665 21.8623 31.6572 22.3797 32.125 23L36.7656 29.1875L35.7656 29.9375L31.125 23.75C30.4282 22.8257 29.3953 22.2133 28.25 22.0455V26.1557L33.1131 32.2344C33.1867 32.3263 33.2328 32.4372 33.2461 32.5542C33.2595 32.6712 33.2395 32.7896 33.1885 32.8957C33.1375 33.0019 33.0575 33.0914 32.9578 33.1541C32.8581 33.2168 32.7428 33.25 32.625 33.25H30.125V37H32.9375C33.6575 37 34.3645 36.8087 34.9863 36.4456C35.608 36.0825 36.1221 35.5607 36.4758 34.9337C36.8296 34.3066 37.0104 33.5968 36.9996 32.8769C36.9889 32.157 36.787 31.4529 36.4147 30.8366L37.4844 30.1903ZM27 14.5C27.3315 14.5 27.6495 14.3683 27.8839 14.1339C28.1183 13.8995 28.25 13.5815 28.25 13.25C28.25 12.9185 28.1183 12.6005 27.8839 12.3661C27.6495 12.1317 27.3315 12 27 12V14.5ZM12 12C11.6685 12 11.3505 12.1317 11.1161 12.3661C10.8817 12.6005 10.75 12.9185 10.75 13.25C10.75 13.5815 10.8817 13.8995 11.1161 14.1339C11.3505 14.3683 11.6685 14.5 12 14.5V12ZM25.125 19.5H25.085C24.722 19.9051 24.3163 20.2699 23.875 20.588V20.75H26.8925C26.7629 20.3847 26.5234 20.0685 26.207 19.8447C25.8905 19.6209 25.5126 19.5005 25.125 19.5ZM24.5 22V32H27V22H24.5ZM22.625 6.87703C23.2498 8.3596 24.3489 9.59294 25.75 10.3838V9.0682C24.5895 7.40899 22.9201 6.28125 22.9029 6.26969L23.5967 5.23C24.3777 5.77572 25.0994 6.40171 25.75 7.09774V7C25.7491 6.17149 25.4195 5.37717 24.8337 4.79132C24.2478 4.20547 23.4535 3.87593 22.625 3.875V6.87703ZM13.25 10.4416C13.4555 10.3459 13.656 10.2399 13.8508 10.124C13.8148 10.124 13.779 10.125 13.7431 10.125H13.25V10.4416ZM13.25 14.5C13.25 16.1576 13.9085 17.7473 15.0806 18.9194C16.2527 20.0915 17.8424 20.75 19.5 20.75C21.1576 20.75 22.7473 20.0915 23.9194 18.9194C25.0915 17.7473 25.75 16.1576 25.75 14.5V11.7863C24.0123 10.9827 22.5956 9.61778 21.7279 7.91125C20.0009 8.95081 18.0872 9.64223 16.0945 9.94649C15.3239 10.7238 14.4025 11.3353 13.3869 11.7434L13.25 11.798V14.5ZM19.5 22C18.4218 22.0012 17.3561 21.7684 16.3765 21.3178C16.5218 22.0391 16.9123 22.6879 17.4817 23.154C18.0511 23.6201 18.7642 23.8748 19.5 23.8748C20.2359 23.8748 20.949 23.6201 21.5184 23.154C22.0878 22.6879 22.4783 22.0391 22.6236 21.3178C21.644 21.7684 20.5783 22.0012 19.5 22ZM12 32H14.5V22H12V32ZM10.75 30.2109V28.1567L7.67539 32H9.04946L9.1368 31.7381C9.25928 31.3705 9.47059 31.0388 9.752 30.7724C10.0334 30.5059 10.3762 30.3131 10.75 30.2109ZM15.125 33.875C15.1248 33.7093 15.0589 33.5504 14.9417 33.4333C14.8246 33.3161 14.6657 33.2502 14.5 33.25H11.375C11.2092 33.25 11.0503 33.1842 10.9331 33.0669C10.8159 32.9497 10.75 32.7908 10.75 32.625V31.5674C10.5494 31.7042 10.3992 31.9031 10.3227 32.1335L10.125 32.7266V37H14.5C14.6657 36.9998 14.8246 36.9339 14.9417 36.8167C15.0589 36.6996 15.1248 36.5407 15.125 36.375V33.875ZM15.125 20.588C14.6837 20.2699 14.278 19.9051 13.915 19.5H13.875C13.4872 19.5001 13.1089 19.6203 12.7922 19.8442C12.4754 20.068 12.2358 20.3844 12.1063 20.75H15.125V20.588ZM23.25 23.0568C22.8505 23.6903 22.2969 24.2122 21.641 24.5739C20.9852 24.9355 20.2484 25.1251 19.4994 25.1249C18.7504 25.1246 18.0137 24.9346 17.358 24.5726C16.7024 24.2106 16.1492 23.6883 15.75 23.0545V32.479C15.9467 32.6545 16.104 32.8696 16.2117 33.1102C16.3194 33.3508 16.3751 33.6114 16.375 33.875V36.375C16.3751 36.5879 16.3387 36.7993 16.2675 37H22.7325C22.6613 36.7993 22.6249 36.5879 22.625 36.375V33.875C22.6249 33.6114 22.6806 33.3508 22.7883 33.1102C22.896 32.8696 23.0533 32.6545 23.25 32.479V23.0568ZM28.875 32.7266L28.6773 32.1337C28.6008 31.9032 28.4506 31.7043 28.25 31.5676V32.625C28.25 32.7908 28.1842 32.9497 28.0669 33.0669C27.9497 33.1842 27.7908 33.25 27.625 33.25H24.5C24.3343 33.2502 24.1754 33.3161 24.0583 33.4333C23.9411 33.5504 23.8752 33.7093 23.875 33.875V36.375C23.8752 36.5407 23.9411 36.6996 24.0583 36.8167C24.1754 36.9339 24.3343 36.9998 24.5 37H28.875V32.7266ZM29.9506 32H31.3246L28.25 28.1567V30.2109C28.6238 30.3131 28.9667 30.506 29.2481 30.7725C29.5295 31.039 29.7408 31.3708 29.8632 31.7385L29.9506 32Z" fill="black"/>
</svg>
